<?xml version="1.0" encoding="UTF-8" standalone="no"?>
<!DOCTYPE svg PUBLIC "-//W3C//DTD SVG 1.1//EN" "http://www.w3.org/Graphics/SVG/1.1/DTD/svg11.dtd">
<svg version="1.1" xmlns="http://www.w3.org/2000/svg" xmlns:xlink="http://www.w3.org/1999/xlink" preserveAspectRatio="xMidYMid meet" viewBox="0 0 640 240" width="640" height="240"><defs><path d="M-2.42 0L640 0L640 137.03L-2.42 137.03L-2.42 0Z" id="a1vXsPWKe4"></path><linearGradient id="gradientb2AjKhz5t5" gradientUnits="userSpaceOnUse" x1="318.79" y1="0" x2="320" y2="110.84"><stop style="stop-color: #3ab3ca;stop-opacity: 1" offset="0%"></stop><stop style="stop-color: #000f6d;stop-opacity: 1" offset="100%"></stop></linearGradient><path d="M-2.42 0L658.02 0L658.02 137.03L-2.42 137.03L-2.42 0Z" id="e4XAsZ9PT"></path><linearGradient id="gradientagzE3vHFU" gradientUnits="userSpaceOnUse" x1="348.57" y1="0" x2="348.57" y2="114.84"><stop style="stop-color: #3a62ca;stop-opacity: 1" offset="0%"></stop><stop style="stop-color: #debe21;stop-opacity: 0.85" offset="100%"></stop></linearGradient><path d="" id="b9OaJ3G4F"></path><path d="M356.23 125.35C356.23 138.79 343.49 149.7 327.8 149.7C312.1 149.7 299.36 138.79 299.36 125.35C299.36 111.92 312.1 101.01 327.8 101.01C343.49 101.01 356.23 111.92 356.23 125.35Z" id="djWnp32S5"></path><path d="M-1.21 132.69L641.21 132.69L641.21 201.72L-1.21 201.72L-1.21 132.69Z" id="a9umW0DvT"></path><linearGradient id="gradientb1FYWusZE" gradientUnits="userSpaceOnUse" x1="327.8" y1="132.69" x2="327.8" y2="199.55"><stop style="stop-color: #3a8aca;stop-opacity: 1" offset="0%"></stop><stop style="stop-color: #71d374;stop-opacity: 1" offset="100%"></stop></linearGradient><path d="M363.87 132.69C353.92 134.27 348.94 135.62 348.94 136.72C348.94 138.38 364.49 138.22 364.49 141.09C364.49 143.96 347.37 146.41 348.94 148.19C350.52 149.96 370.51 146.45 370.81 148.19C371.11 149.93 352.37 153.38 351.55 159.01C350.73 164.64 366.82 165.87 367.54 170.71C368.26 175.55 352.86 169.04 353.04 174.5C353.21 179.95 386.88 188.01 368.24 192.52C349.59 197.02 295.76 195.57 278.46 192.52C261.16 189.46 296.81 185.94 299.03 180.3C301.25 174.67 286.33 173.23 287.34 169.98C288.35 166.73 304.57 171.18 303.08 167.3C301.6 163.42 281.25 157.66 281.41 154.45C281.56 151.23 302.57 157.79 303.71 154.45C304.84 151.11 285.94 143.55 285.94 141.09C285.94 138.63 302.3 148.08 303.71 144.6C304.64 142.28 300.59 138.31 291.55 132.69L363.87 132.69Z" id="a2dxHhGZ8m"></path><path d="M-1.21 184.97C26.35 175.64 55.16 175.64 85.24 184.97C130.35 198.97 127.74 170.97 155.24 184.97C182.74 198.97 176.74 191.38 221.24 181.38C265.74 171.38 292.74 180.07 309.24 184.97C325.74 189.87 363.74 200.97 399.24 184.97C434.74 168.97 438.24 192.97 467.24 192.97C496.24 192.97 503.74 176.97 529.24 174.97C546.24 173.64 571.57 179.64 605.24 192.97L641.21 184.97L641.21 240L-1.21 240L-1.21 184.97Z" id="j2nYnuhYrf"></path><path d="M145.24 172.14C145.24 184.62 143.02 200.33 138.59 219.28L111.76 218.95C107.41 200.1 105.24 184.5 105.24 172.14C105.24 137.18 114.2 108.79 125.24 108.79C136.27 108.79 145.24 137.18 145.24 172.14Z" id="boMx3TnGK"></path><path d="M177.24 184.69C177.24 197.16 175.02 212.87 170.59 231.83L143.76 231.5C139.41 212.65 137.24 197.05 137.24 184.69C137.24 149.72 146.2 121.33 157.24 121.33C168.27 121.33 177.24 149.72 177.24 184.69Z" id="d2Gd4j80Oy"></path><path d="M162.8 179.57C162.71 192.04 160.67 205.33 156.65 219.43L157.16 144.62C161 155.45 162.88 167.11 162.8 179.57Z" id="b2hppoYrmu"></path><path d="M136.24 171.62C135.57 184.07 132.9 197.25 128.24 211.14L132.24 136.44C135.57 147.44 136.9 159.17 136.24 171.62Z" id="acDl2BtwP"></path></defs><g><g><g><use xlink:href="#a1vXsPWKe4" opacity="1" fill="url(#gradientb2AjKhz5t5)"></use></g><g><use xlink:href="#e4XAsZ9PT" opacity="1" fill="url(#gradientagzE3vHFU)"></use></g><g><g><use xlink:href="#b9OaJ3G4F" opacity="1" fill-opacity="0" stroke="#000000" stroke-width="1" stroke-opacity="1"></use></g></g><g><use xlink:href="#djWnp32S5" opacity="1" fill="#f1dfc2" fill-opacity="1"></use></g><g><use xlink:href="#a9umW0DvT" opacity="1" fill="url(#gradientb1FYWusZE)"></use></g><g><use xlink:href="#a2dxHhGZ8m" opacity="1" fill="#fae1a3" fill-opacity="1"></use></g><g><use xlink:href="#j2nYnuhYrf" opacity="1" fill="#dcdaaf" fill-opacity="1"></use></g><g><use xlink:href="#boMx3TnGK" opacity="1" fill="#913da0" fill-opacity="1"></use></g><g><use xlink:href="#d2Gd4j80Oy" opacity="1" fill="#caba31" fill-opacity="1"></use></g><g><use xlink:href="#b2hppoYrmu" opacity="1" fill="#eee0b2" fill-opacity="1"></use></g><g><use xlink:href="#acDl2BtwP" opacity="1" fill="#dcb2ee" fill-opacity="1"></use></g></g></g></svg>