<?xml version="1.0" encoding="UTF-8" standalone="no"?>
<!DOCTYPE svg PUBLIC "-//W3C//DTD SVG 1.1//EN" "http://www.w3.org/Graphics/SVG/1.1/DTD/svg11.dtd">
<svg version="1.1" xmlns="http://www.w3.org/2000/svg" xmlns:xlink="http://www.w3.org/1999/xlink" preserveAspectRatio="xMidYMid meet" viewBox="0 0 150 150" width="150" height="150"><defs><path d="M34.98 22.09L35.8 22.22L36.63 22.38L37.48 22.58L38.34 22.8L39.21 23.05L40.08 23.31L40.96 23.59L41.84 23.89L42.72 24.19L43.61 24.5L44.48 24.81L45.36 25.13L46.22 25.43L47.08 25.73L47.92 26.02L48.75 26.29L49.3 26.47L49.85 26.69L50.39 26.92L50.93 27.18L51.47 27.46L52.01 27.77L52.54 28.09L53.07 28.45L53.6 28.82L54.13 29.23L54.65 29.65L55.17 30.1L55.69 30.57L56.21 31.07L56.72 31.58L57.23 32.13L57.74 32.69L58.25 33.29L58.75 33.9L59.25 34.54L59.75 35.2L60.25 35.89L60.74 36.59L61.23 37.33L61.72 38.08L62.21 38.87L62.69 39.67L63.17 40.5L63.65 41.35L64.13 42.23L64.6 43.12L65.07 44.05L65.54 44.99L66.01 45.97L66.47 46.96L66.93 47.98L67.39 49.02L67.85 50.09L68.3 51.17L68.75 52.29L69.81 50.84L70.87 49.42L71.95 48.03L73.03 46.67L74.12 45.34L75.22 44.04L76.33 42.77L77.44 41.54L78.57 40.33L79.7 39.16L80.84 38.03L81.99 36.92L83.15 35.86L84.31 34.83L85.48 33.83L86.66 32.87L87.84 31.95L89.04 31.07L90.24 30.22L91.44 29.41L92.65 28.65L93.87 27.92L95.1 27.23L96.33 26.58L97.57 25.98L98.81 25.42L100.06 24.9L101.31 24.42L102.57 23.99L103.84 23.6L105.11 23.26L106.39 22.96L107.67 22.71L108.95 22.5L110.24 22.35L111.54 22.24L112.83 22.18L114.14 22.16L115.44 22.2L116.75 22.29L118.06 22.52L119.36 22.97L120.65 23.64L121.92 24.51L123.17 25.58L124.4 26.84L125.61 28.27L126.8 29.86L127.96 31.6L129.1 33.49L130.2 35.52L131.27 37.66L132.3 39.92L133.3 42.28L134.26 44.74L135.18 47.28L136.05 49.89L136.87 52.56L137.65 55.28L138.38 58.04L139.05 60.84L139.67 63.66L140.23 66.48L140.73 69.31L141.16 72.13L141.54 74.93L141.84 77.7L142.08 80.42L142.25 83.1L142.34 85.72L142.36 88.26L142.3 90.73L142.16 93.1L141.94 95.37L141.63 97.53L141.24 99.57L140.76 101.47L140.18 103.23L139.52 104.84L138.75 106.29L138.46 106.76L138.14 107.2L137.82 107.61L137.48 107.99L137.13 108.34L136.77 108.65L136.39 108.93L136 109.18L135.6 109.4L135.19 109.59L134.76 109.74L134.32 109.86L133.87 109.95L133.4 110.01L132.92 110.04L132.43 110.03L131.92 109.99L131.41 109.92L130.88 109.82L130.33 109.69L129.78 109.52L129.21 109.32L128.62 109.09L128.03 108.83L127.42 108.54L126.8 108.21L126.17 107.85L125.52 107.46L124.86 107.04L124.19 106.59L123.5 106.1L122.8 105.58L122.09 105.03L121.37 104.45L120.63 103.84L119.88 103.19L119.12 102.51L118.34 101.8L117.56 101.06L116.75 100.29L117.21 99.22L117.65 98.17L118.07 97.13L118.48 96.1L118.87 95.08L119.25 94.08L119.62 93.09L119.97 92.1L120.31 91.13L120.63 90.17L120.93 89.23L121.23 88.29L121.5 87.37L121.77 86.46L122.01 85.56L122.25 84.67L122.47 83.79L122.67 82.93L122.86 82.08L123.04 81.24L123.2 80.41L123.34 79.59L123.47 78.78L123.59 77.99L123.69 77.21L123.78 76.44L123.85 75.68L123.91 74.93L123.95 74.2L123.98 73.47L124 72.76L124 72.06L123.98 71.37L123.95 70.7L123.91 70.03L123.85 69.38L123.77 68.74L123.68 68.11L123.58 67.49L123.46 66.89L123.26 66L123.04 65.14L122.8 64.3L122.53 63.48L122.24 62.7L121.93 61.93L121.61 61.2L121.26 60.49L120.9 59.8L120.53 59.14L120.14 58.51L119.73 57.9L119.31 57.32L118.88 56.77L118.44 56.24L117.99 55.74L117.53 55.27L117.07 54.83L116.59 54.41L116.11 54.02L115.63 53.66L115.14 53.32L114.65 53.02L114.15 52.74L113.66 52.49L113.16 52.27L112.67 52.08L112.17 51.92L111.68 51.78L111.2 51.68L110.72 51.6L110.24 51.56L109.77 51.54L109.31 51.56L108.86 51.6L108.41 51.68L107.98 51.79L107.56 51.92L107.15 52.09L106.75 52.29L106.5 52.44L106.25 52.62L106.01 52.83L105.78 53.06L105.56 53.32L105.34 53.6L105.14 53.91L104.94 54.24L104.75 54.6L104.56 54.98L104.39 55.39L104.22 55.83L104.06 56.28L103.91 56.77L103.77 57.28L103.63 57.82L103.5 58.38L103.38 58.96L103.27 59.58L103.17 60.21L103.07 60.88L102.98 61.56L102.9 62.28L102.83 63.02L102.77 63.78L102.71 64.57L102.66 65.38L102.62 66.23L102.59 67.09L102.56 67.98L102.55 68.9L102.54 69.84L102.54 70.81L102.54 71.8L102.56 72.82L102.58 73.86L102.61 74.93L102.65 76.02L102.7 77.14L102.75 78.29L101.44 77.8L100.16 77.34L98.9 76.9L97.68 76.49L96.49 76.1L95.32 75.74L94.19 75.4L93.09 75.09L92.01 74.8L90.97 74.54L89.96 74.3L88.98 74.09L88.02 73.9L87.1 73.74L86.21 73.6L85.35 73.49L84.51 73.4L83.71 73.34L82.94 73.3L82.2 73.29L81.49 73.3L80.81 73.34L80.15 73.4L79.53 73.49L78.94 73.6L78.38 73.74L77.85 73.9L77.35 74.09L76.88 74.3L76.44 74.54L76.02 74.8L75.64 75.09L75.29 75.4L74.97 75.74L74.68 76.1L74.42 76.49L74.19 76.9L73.99 77.34L73.82 77.8L73.68 78.29L73.58 78.79L73.53 79.31L73.52 79.83L73.56 80.37L73.65 80.91L73.79 81.47L73.97 82.03L74.2 82.61L74.48 83.19L74.81 83.79L75.18 84.39L75.61 85.01L76.08 85.63L76.59 86.27L77.16 86.91L77.77 87.57L78.43 88.23L79.14 88.91L79.9 89.59L80.7 90.29L81.55 90.99L82.45 91.71L83.39 92.43L84.39 93.17L85.43 93.91L86.52 94.67L87.65 95.43L88.84 96.21L90.07 96.99L91.35 97.79L92.67 98.59L94.05 99.41L95.47 100.23L96.94 101.07L98.46 101.91L100.02 102.77L101.63 103.63L103.29 104.51L105 105.39L106.75 106.29L105.76 107.52L104.76 108.72L103.78 109.89L102.81 111.03L101.85 112.13L100.89 113.2L99.95 114.24L99.01 115.25L98.08 116.22L97.16 117.16L96.25 118.07L95.35 118.95L94.45 119.79L93.57 120.6L92.69 121.38L91.83 122.13L90.97 122.84L90.12 123.52L89.28 124.17L88.45 124.79L87.63 125.37L86.81 125.92L86.01 126.44L85.21 126.93L84.43 127.38L83.65 127.8L82.88 128.19L82.12 128.55L81.37 128.87L80.62 129.16L79.89 129.42L79.16 129.65L78.45 129.84L77.74 130L77.04 130.13L76.35 130.23L75.67 130.29L75 130.32L74.33 130.32L73.68 130.29L72.74 130.2L71.88 130.07L71.09 129.9L70.36 129.7L69.7 129.47L69.1 129.2L68.55 128.9L68.06 128.56L67.62 128.19L67.23 127.78L66.88 127.34L66.57 126.86L66.3 126.35L66.06 125.81L65.86 125.23L65.67 124.62L65.52 123.98L65.38 123.3L65.26 122.59L65.15 121.85L65.06 121.07L64.97 120.27L64.89 119.43L64.8 118.55L64.71 117.65L64.62 116.71L64.51 115.74L64.4 114.74L64.26 113.7L64.11 112.64L63.93 111.54L63.73 110.42L63.5 109.26L63.23 108.07L62.93 106.85L62.59 105.6L62.2 104.31L61.77 103L61.29 101.66L61.19 101.41L60.75 102.29L60.05 103.66L59.35 105.01L58.66 106.34L57.97 107.63L57.29 108.9L56.62 110.13L55.95 111.34L55.28 112.51L54.62 113.65L53.96 114.76L53.3 115.83L52.64 116.86L51.98 117.85L51.31 118.81L50.65 119.73L49.98 120.6L49.31 121.43L48.63 122.22L47.94 122.96L47.25 123.66L46.56 124.31L45.85 124.92L45.14 125.47L44.41 125.98L43.67 126.43L42.93 126.83L42.17 127.18L41.39 127.47L40.6 127.7L39.8 127.88L38.98 128L38.15 128.06L37.29 128.07L36.42 128L35.53 127.88L34.62 127.69L33.69 127.44L32.73 127.13L31.75 126.74L30.75 126.29L29.73 125.78L28.7 125.25L27.65 124.68L26.6 124.07L25.54 123.44L24.48 122.77L23.41 122.07L22.35 121.34L21.3 120.58L20.25 119.8L19.22 118.98L18.2 118.13L17.2 117.25L16.21 116.35L15.25 115.42L14.31 114.46L13.41 113.47L12.53 112.46L11.69 111.42L10.88 110.35L10.11 109.26L9.39 108.14L8.71 107L8.07 105.84L7.49 104.65L6.96 103.44L6.49 102.21L6.08 100.95L5.73 99.67L5.44 98.37L5.22 97.05L5.07 95.71L5 94.35L5 92.97L5.08 91.57L5.24 90.15L5.48 88.71L5.82 87.25L6.24 85.78L6.75 84.29L7.33 82.9L7.91 81.71L8.52 80.73L9.13 79.93L9.77 79.32L10.41 78.88L11.07 78.6L11.75 78.48L12.43 78.5L13.13 78.66L13.84 78.95L14.56 79.36L15.29 79.87L16.03 80.49L16.77 81.19L17.53 81.98L18.29 82.85L19.07 83.77L19.84 84.76L20.63 85.79L21.42 86.86L22.21 87.95L23.01 89.07L23.82 90.19L24.63 91.32L25.44 92.44L26.25 93.54L27.06 94.62L27.88 95.66L28.69 96.66L29.51 97.61L30.32 98.5L31.14 99.31L31.95 100.05L32.76 100.69L33.57 101.24L34.37 101.69L35.17 102.01L35.96 102.22L36.75 102.29L37.53 102.27L38.28 102.21L39.02 102.12L39.72 101.99L40.41 101.83L41.07 101.63L41.71 101.39L42.32 101.12L42.91 100.81L43.48 100.48L44.02 100.1L44.54 99.7L45.04 99.26L45.51 98.78L45.96 98.28L46.38 97.74L46.78 97.18L47.15 96.58L47.49 95.95L47.82 95.29L48.11 94.6L48.38 93.88L48.63 93.13L48.85 92.35L49.04 91.55L49.21 90.71L49.35 89.85L49.47 88.96L49.56 88.04L49.62 87.1L49.66 86.13L49.67 85.14L49.65 84.12L49.6 83.07L49.53 82L49.43 80.9L49.3 79.78L49.15 78.64L48.97 77.48L48.75 76.29L48.5 75.12L48.19 74.02L47.82 72.97L47.41 71.98L46.94 71.05L46.44 70.15L45.89 69.31L45.3 68.5L44.68 67.72L44.02 66.98L43.34 66.26L42.63 65.56L41.89 64.88L41.14 64.22L40.37 63.56L39.59 62.91L38.79 62.26L37.99 61.61L37.19 60.96L36.38 60.29L35.57 59.6L34.77 58.9L33.98 58.18L33.2 57.42L32.44 56.64L31.69 55.82L30.96 54.96L30.25 54.06L29.57 53.1L28.93 52.1L28.31 51.04L27.73 49.92L27.19 48.73L26.69 47.48L26.24 46.16L25.83 44.75L25.48 43.27L25.18 41.7L24.94 40.04L24.75 38.29L24.64 36.55L24.58 34.93L24.58 33.42L24.64 32.03L24.76 30.74L24.93 29.56L25.15 28.47L25.43 27.49L25.75 26.6L26.11 25.8L26.52 25.08L26.98 24.45L27.47 23.9L28 23.42L28.57 23.02L29.17 22.69L29.8 22.42L30.47 22.21L31.16 22.07L31.88 21.98L32.62 21.93L33.39 21.94L34.17 21.99L34.17 21.99L34.98 22.09Z" id="b1bcz0H6e"></path></defs><g><g><g><use xlink:href="#b1bcz0H6e" opacity="1" fill="#f5ff00" fill-opacity="1"></use><g><use xlink:href="#b1bcz0H6e" opacity="1" fill-opacity="0" stroke="#4a4a2d" stroke-width="5" stroke-opacity="1"></use></g></g></g></g></svg>