<?xml version="1.0" encoding="UTF-8" standalone="no"?>
<!DOCTYPE svg PUBLIC "-//W3C//DTD SVG 1.1//EN" "http://www.w3.org/Graphics/SVG/1.1/DTD/svg11.dtd">
<svg version="1.1" xmlns="http://www.w3.org/2000/svg" xmlns:xlink="http://www.w3.org/1999/xlink" preserveAspectRatio="xMidYMid meet" viewBox="0 0 640 640" width="640" height="640"><defs><path d="M-2.02 -2.02L644.24 -2.02L644.24 640L-2.02 640L-2.02 -2.02Z" id="e1VMfoBwwX"></path><path d="M288.18 599.27C380.56 508.73 426.16 482.38 424.97 520.23C423.78 558.08 454.18 535.78 516.17 453.33C507.34 523.35 483.93 567.95 445.94 587.14C407.95 606.32 355.37 610.36 288.18 599.27Z" id="bMsyel0F"></path><path d="M276.57 533.96C196.46 442.44 153.02 411.4 146.26 440.85C139.5 470.3 111.54 445.95 62.4 367.82C57.02 423.86 72.71 463.74 109.49 487.47C146.26 511.2 201.96 526.69 276.57 533.96Z" id="c5uVzlnLD"></path><path d="M331.59 332.66C388.75 277.99 416.99 262.11 416.3 285.01C415.61 307.9 434.43 294.45 472.76 244.65C467.37 287 452.91 313.95 429.39 325.51C405.86 337.07 373.26 339.45 331.59 332.66Z" id="g7MyvdpNpI"></path><path d="M304.55 269.68C284.45 293.69 274.28 329.06 274.04 375.77C273.68 445.84 292.86 583.79 303.11 549.96C313.36 516.14 296.51 377.21 306.97 345.53C313.94 324.4 313.14 299.12 304.55 269.68Z" id="j7sOwbPKQW"></path><path d="M257.09 405.86C232.89 308.07 214.36 273.73 201.52 302.82C188.67 331.91 178.02 305.42 169.56 223.34C149.86 279.25 148.22 320.46 164.65 346.98C181.08 373.5 211.89 393.12 257.09 405.86Z" id="d1twYeeint"></path><path d="M323.03 416.62C358.69 397.42 380.93 388.54 389.75 389.96C398.57 391.39 420.49 378.6 455.53 351.57C433.08 395.88 411.51 421.79 390.82 429.29C370.12 436.8 347.52 432.57 323.03 416.62Z" id="c88SUfNzO"></path><path d="M353.31 44.76C372.45 45.95 396.39 42.25 425.15 33.65L409.01 101.99L467.58 109.29C455.16 130.51 442.99 149.49 431.07 166.25C425.83 173.6 430.62 196.46 445.43 234.83L374.23 225.56L364.83 287.88C333.04 269.83 313.75 260.81 306.97 260.81C295.7 260.81 264.93 263.76 214.65 269.68L229.48 219.42L158.72 208.13C178.77 179.31 188.79 159.15 188.79 147.68C188.79 137.01 139.87 108.49 142.85 98.66C146.32 87.22 196.11 96.68 203.02 86.92C210.42 76.46 181.23 41.51 191.83 33.65C203.09 25.3 248.26 60.39 262.21 55.79C276.17 51.2 291.25 10.3 306.97 10.3C312.24 10.3 330.38 43.34 353.31 44.76Z" id="b1NIZSvUM9"></path><path d="M385.52 149.84C385.48 191.67 350.26 225.6 306.91 225.56C263.56 225.53 228.39 191.54 228.42 149.71C228.46 107.88 263.68 73.95 307.03 73.99C350.38 74.02 385.55 108.01 385.52 149.84Z" id="a3EFEqMrR"></path></defs><g><g><g><use xlink:href="#e1VMfoBwwX" opacity="1" fill="#fff7e0" fill-opacity="1"></use></g><g><use xlink:href="#bMsyel0F" opacity="1" fill="#64f145" fill-opacity="0.19"></use></g><g><use xlink:href="#c5uVzlnLD" opacity="1" fill="#64f145" fill-opacity="0.19"></use></g><g><use xlink:href="#g7MyvdpNpI" opacity="1" fill="#64f145" fill-opacity="0.19"></use></g><g><use xlink:href="#j7sOwbPKQW" opacity="1" fill="#64f145" fill-opacity="0.19"></use></g><g><use xlink:href="#d1twYeeint" opacity="1" fill="#64f145" fill-opacity="0.19"></use></g><g><use xlink:href="#c88SUfNzO" opacity="1" fill="#64f145" fill-opacity="0.19"></use></g><g><use xlink:href="#b1NIZSvUM9" opacity="1" fill="#eaee93" fill-opacity="0.19"></use></g><g><use xlink:href="#a3EFEqMrR" opacity="1" fill="#e9f145" fill-opacity="0.19"></use></g></g></g></svg>