<?xml version="1.0" encoding="UTF-8" standalone="no"?>
<!DOCTYPE svg PUBLIC "-//W3C//DTD SVG 1.1//EN" "http://www.w3.org/Graphics/SVG/1.1/DTD/svg11.dtd">
<svg version="1.1" xmlns="http://www.w3.org/2000/svg" xmlns:xlink="http://www.w3.org/1999/xlink" preserveAspectRatio="xMidYMid meet" viewBox="0 0 640 240" width="640" height="240"><defs><path d="M-2.42 0L640 0L640 149.7L-2.42 149.7L-2.42 0Z" id="c1g7mrZ23q"></path><path d="M-3.43 0L641.01 0L641.01 157.2L-3.43 157.2L-3.43 0Z" id="a1nKyRlq2S"></path><linearGradient id="gradientdo19Klp94" gradientUnits="userSpaceOnUse" x1="339.05" y1="0" x2="339.05" y2="131.75"><stop style="stop-color: #ab0707;stop-opacity: 0.69" offset="0%"></stop><stop style="stop-color: #fff27d;stop-opacity: 1" offset="100%"></stop></linearGradient><path d="" id="b9OaJ3G4F"></path><path d="M500.51 145.66C500.51 164.61 481.05 180 457.08 180C433.1 180 413.64 164.61 413.64 145.66C413.64 126.7 433.1 111.31 457.08 111.31C481.05 111.31 500.51 126.7 500.51 145.66Z" id="h15vjmHEIW"></path><path d="M257.38 108.4L260.18 108.67L262.95 109.05L265.69 109.55L268.4 110.15L271.09 110.85L273.76 111.67L276.39 112.6L279 113.64L281.59 114.78L284.15 116.04L286.68 117.4L289.18 118.87L291.66 120.45L294.11 122.15L296.54 123.95L298.94 125.86L301.31 127.87L303.66 130L305.98 132.24L308.27 134.58L310.54 137.04L312.78 139.6L315 142.27L317.18 145.06L319.35 147.95L321.48 150.95L323.59 154.06L325.67 157.27L327.73 160.6L329.76 164.04L331.76 167.58L333.74 171.24L335.69 175L337.62 178.87L339.51 182.86L341.39 186.95L343.23 191.15L345.05 195.46L225.41 195.46L220.5 198.34L215.3 201.36L210.15 204.29L205.06 207.15L200.02 209.93L195.04 212.63L190.11 215.25L185.24 217.8L180.42 220.26L175.65 222.65L170.94 224.96L166.29 227.19L161.68 229.34L157.14 231.42L152.64 233.42L148.21 235.33L143.82 237.17L139.5 238.93L135.22 240.62L131 242.22L126.84 243.75L122.73 245.2L118.67 246.57L114.67 247.86L110.73 249.07L106.83 250.21L103 251.26L99.22 252.24L95.49 253.14L91.81 253.96L88.2 254.71L84.63 255.37L81.12 255.96L77.67 256.47L74.27 256.9L70.92 257.25L67.63 257.53L64.4 257.72L61.21 257.84L58.09 257.88L55.02 257.87L52.04 257.85L49.13 257.82L46.29 257.78L43.53 257.72L40.85 257.65L38.24 257.57L35.7 257.47L33.24 257.37L30.86 257.25L28.55 257.11L26.32 256.97L24.16 256.81L22.08 256.64L20.08 256.46L18.15 256.26L16.29 256.05L14.51 255.83L12.81 255.6L11.18 255.35L9.62 255.09L8.15 254.82L6.74 254.54L5.42 254.24L4.16 253.93L2.99 253.61L1.89 253.28L0.86 252.93L-0.09 252.57L-0.96 252.2L-1.76 251.81L-2.49 251.41L-3.13 251L-3.71 250.58L-4.2 250.15L-4.63 249.7L-4.97 249.24L-5.24 248.76L-5.44 248.28L-5.56 247.78L-6.61 243.53L-7.61 239.36L-8.56 235.28L-9.45 231.28L-10.29 227.36L-11.07 223.52L-11.8 219.77L-12.47 216.09L-13.1 212.5L-13.66 209L-14.18 205.58L-14.63 202.23L-15.04 198.98L-15.39 195.8L-15.69 192.71L-15.93 189.7L-16.12 186.77L-16.26 183.92L-16.34 181.16L-16.36 178.48L-16.34 175.88L-16.26 173.37L-16.12 170.93L-15.93 168.58L-15.69 166.32L-15.39 164.13L-15.04 162.03L-14.63 160.01L-14.18 158.07L-13.66 156.22L-13.1 154.45L-12.47 152.76L-11.8 151.15L-11.07 149.63L-10.29 148.19L-9.45 146.83L-8.56 145.55L-7.61 144.36L-6.61 143.25L-5.56 142.22L-2.69 139.68L0.21 137.27L3.14 134.99L6.11 132.84L9.1 130.8L12.12 128.88L15.16 127.07L18.22 125.37L21.29 123.78L24.38 122.29L27.48 120.9L30.59 119.6L33.71 118.4L36.83 117.28L39.95 116.25L43.07 115.31L46.18 114.44L49.29 113.64L52.39 112.92L55.47 112.27L58.54 111.68L61.6 111.16L64.63 110.69L67.64 110.28L70.62 109.92L73.58 109.6L76.5 109.33L79.39 109.11L82.25 108.92L85.06 108.76L87.84 108.64L90.57 108.54L93.25 108.47L95.88 108.42L98.46 108.38L100.99 108.36L103.46 108.35L105.87 108.35L108.21 108.35L110.5 108.35L113.59 108.4L116.67 108.57L119.75 108.84L122.81 109.22L125.86 109.71L128.9 110.3L131.93 111.01L134.94 111.83L137.95 112.75L140.95 113.78L143.93 114.92L146.91 116.17L149.87 117.53L152.82 119L155.77 120.57L158.7 122.25L161.62 124.05L164.52 125.95L167.42 127.96L170.31 130.08L173.19 132.3L176.05 134.64L178.89 137.07L178.93 137.04L182.38 134.58L185.81 132.24L189.21 130L192.59 127.87L195.94 125.86L199.26 123.95L202.56 122.15L205.83 120.45L209.07 118.87L212.29 117.4L215.48 116.04L218.64 114.78L221.78 113.64L224.89 112.6L227.98 111.67L231.04 110.85L234.07 110.15L237.08 109.55L240.06 109.05L243.01 108.67L245.94 108.4L248.84 108.24L251.71 108.18L254.56 108.24L257.38 108.4Z" id="d277XVZXDx"></path><path d="M596.34 107.42L598.95 107.73L601.5 108.17L603.98 108.74L606.4 109.42L608.76 110.24L611.05 111.17L613.27 112.24L615.43 113.43L617.53 114.74L619.57 116.18L621.54 117.74L623.44 119.43L625.28 121.24L627.06 123.18L628.78 125.25L630.42 127.43L632.01 129.75L633.53 132.19L634.99 134.75L636.38 137.44L637.71 140.26L638.98 143.19L640.18 146.26L641.31 149.45L642.39 152.76L643.4 156.2L644.34 159.77L645.22 163.46L646.04 167.27L646.79 171.21L647.48 175.28L648.1 179.47L648.66 183.78L649.16 188.22L649.59 192.79L649.96 197.48L650.27 202.3L650.51 207.24L435.42 195.25L285.25 195.25L286.9 192.61L288.58 190.03L290.29 187.52L292.02 185.07L293.79 182.69L295.58 180.38L297.4 178.14L299.25 175.96L301.12 173.85L303.03 171.81L304.96 169.83L306.92 167.92L308.91 166.08L310.93 164.3L312.98 162.6L315.06 160.95L317.16 159.38L319.29 157.87L321.45 156.43L323.64 155.06L325.86 153.75L328.11 152.51L330.38 151.34L332.68 150.24L335.01 149.2L337.37 148.23L339.76 147.32L342.18 146.49L344.62 145.71L347.09 145.01L349.59 144.38L352.12 143.81L354.68 143.3L357.27 142.87L359.88 142.5L362.53 142.2L365.2 141.96L367.9 141.8L370.62 141.7L373.38 141.66L376.17 141.7L378.98 141.8L381.82 141.96L384.69 142.2L387.59 142.5L390.52 142.87L393.47 143.3L396.46 143.81L399.47 144.38L402.51 145.01L405.58 145.71L408.67 146.49L411.8 147.32L414.95 148.23L418.13 149.2L421.35 150.24L424.58 151.34L427.85 152.51L431.15 153.75L434.47 155.06L437.82 156.43L441.2 157.87L444.61 159.38L448.05 160.95L451.52 162.6L455.01 164.3L458.53 166.08L462.08 167.92L464.56 169.24L467.41 167.03L472.09 163.46L476.72 159.99L481.29 156.64L485.8 153.4L490.25 150.26L494.64 147.24L498.97 144.33L503.25 141.52L507.46 138.83L511.62 136.25L515.71 133.77L519.75 131.41L523.73 129.16L527.65 127.01L531.51 124.98L535.31 123.06L539.06 121.24L542.74 119.54L546.37 117.94L549.93 116.46L553.44 115.09L556.89 113.82L560.28 112.67L563.61 111.62L566.88 110.69L570.09 109.86L573.25 109.15L576.34 108.55L579.38 108.05L582.35 107.67L585.27 107.39L588.13 107.23L590.93 107.17L593.67 107.23L596.34 107.42Z" id="a10jjXidr6"></path><path d="M212.01 190.1C305.31 187.17 447.98 191.21 640 202.22L640 240L136.96 240C93.68 209.66 118.7 193.03 212.01 190.1Z" id="a1vNTP3Ui"></path><path d="M102.77 213.25C102.77 203.77 101.89 192.33 100.12 178.92L107.18 178.92C109.01 188.24 109.92 199.35 109.92 212.27C109.92 225.18 109.01 239.89 107.18 256.4L100.12 256.4C101.89 237.11 102.77 222.73 102.77 213.25Z" id="c194wkVII3"></path><path d="M299.31 322.16C304.43 330.07 306.53 339.55 305.61 350.61L296.27 333.22L296.27 350.61L284.29 330.86L280.92 348.55L269.1 327.15L268.28 344.29L261.96 327.15C258.72 338.19 256.44 343.24 255.12 342.31C248.34 337.54 244.96 331.34 244.96 323.72C244.96 299.61 251.75 303.15 274.91 303.15C282.32 303.15 291.64 310.3 299.31 322.16Z" id="awtSB3sv8"></path><path d="M259.57 114.82C260.82 121.04 259.72 127.38 256.26 133.84L254.74 120.7L250.24 131.28L247.62 115.98L240.87 125.8L238.78 109.55L233.81 119.74L234.18 107.58C229.23 113.4 226.45 115.84 225.84 114.91C222.7 110.15 222.12 105.45 224.1 100.82C230.35 86.16 233.81 90.19 248.75 96.56C253.53 98.59 257.69 105.5 259.57 114.82Z" id="e3ydeyUWQM"></path><path d="M196.73 101.2C193.14 106.43 191.67 112.69 192.31 120L198.86 108.51L198.86 120L207.26 106.95L209.63 118.64L217.92 104.5L218.49 115.83L222.93 104.5C225.19 111.79 226.79 115.13 227.72 114.51C232.47 111.36 234.85 107.27 234.85 102.23C234.85 86.3 230.08 88.64 213.84 88.64C208.65 88.64 202.11 93.36 196.73 101.2Z" id="a1ZxNa1Cim"></path><path d="M231.48 137.25C231.48 127.77 232.6 116.33 234.85 102.92L225.87 102.92C223.55 112.24 222.39 123.35 222.39 136.27C222.39 149.18 223.55 163.89 225.87 180.4L234.85 180.4C232.6 161.11 231.48 146.73 231.48 137.25Z" id="b4ippCsId"></path><path d="M131.71 175.51C136.13 180.04 138.65 185.97 139.26 193.27L130.85 183.07L132.81 194.39L122.31 182.97L121.97 194.89L111.39 182.37L112.76 193.63L106.46 183.22C105.46 190.8 104.46 194.36 103.44 193.91C98.22 191.61 95.18 187.98 94.32 183.02C91.6 167.32 96.7 168.82 112.7 166.05C117.82 165.16 125.07 168.7 131.71 175.51Z" id="d2eGCC0iYf"></path><path d="M74.51 185.4C71.57 191.22 71.07 197.66 73.01 204.74L78.03 192.21L79.99 203.53L86.73 189.12L91.24 200.2L97.67 184.74L100.22 195.8L103.02 183.82C106.68 190.58 108.96 193.58 109.84 192.8C114.37 188.82 116.21 184.34 115.35 179.38C112.63 163.68 107.95 166.87 90.63 169.87C85.08 170.83 78.91 176.69 74.51 185.4Z" id="b1Y9Q3ognT"></path><path d="M280.6 120.06L281.12 120.15L281.63 120.3L282.12 120.49L282.62 120.74L283.1 121.05L283.58 121.41L284.06 121.83L284.53 122.31L285.01 122.85L285.49 123.46L285.97 124.12L286.46 124.86L286.95 125.67L287.45 126.54L287.97 127.49L288.44 128.41L288.48 128.43L289.25 128.73L290.04 129.06L290.87 129.41L291.74 129.79L292.64 130.19L293.58 130.62L294.56 131.06L295.59 131.51L296.65 131.99L297.76 132.47L298.92 132.97L299.29 133.14L299.67 133.33L300.04 133.54L300.4 133.77L300.77 134.02L301.13 134.29L301.48 134.58L301.84 134.88L302.19 135.2L302.53 135.55L302.87 135.9L303.21 136.28L303.54 136.67L303.86 137.08L304.19 137.51L304.5 137.95L304.81 138.41L305.12 138.88L305.41 139.37L305.71 139.88L305.99 140.39L306.27 140.93L306.55 141.48L306.81 142.04L307.07 142.61L307.33 143.2L307.57 143.81L307.81 144.42L308.04 145.05L308.26 145.69L308.48 146.35L308.68 147.01L308.88 147.69L309.07 148.38L309.25 149.07L309.42 149.78L309.58 150.5L309.74 151.24L309.83 151.73L309.91 152.22L309.99 152.71L310.05 153.2L310.11 153.7L310.15 154.19L310.19 154.68L310.21 155.18L310.23 155.67L310.23 156.17L310.23 156.66L310.22 157.16L310.19 157.66L310.16 158.16L310.12 158.65L310.06 159.15L310 159.65L309.93 160.15L309.85 160.65L309.75 161.15L309.65 161.65L309.54 162.16L309.42 162.66L309.29 163.16L309.15 163.67L309 164.17L308.84 164.67L308.67 165.18L308.49 165.68L308.3 166.19L308.1 166.7L307.89 167.2L307.67 167.71L307.44 168.22L307.2 168.73L306.95 169.24L306.69 169.75L306.43 170.26L304.91 157.12L300.4 167.69L297.79 152.39L291.03 162.22L288.95 145.96L283.98 156.15L284.34 144L283.96 144.45L283.58 144.89L283.21 145.31L282.85 145.72L282.5 146.12L282.16 146.5L281.83 146.87L281.51 147.22L281.19 147.56L280.89 147.89L280.59 148.2L280.31 148.5L280.16 148.65L280.18 148.94L280.07 148.74L280.03 148.78L280.02 148.79L279.99 148.97L279.84 149.91L279.71 150.83L279.6 151.73L279.5 152.62L279.41 153.5L279.33 154.36L279.27 155.2L279.22 156.03L279.19 156.84L279.17 157.64L279.16 158.42L279.17 159.21L279.19 160.05L279.22 160.92L279.27 161.83L279.33 162.77L279.41 163.76L279.5 164.78L279.6 165.84L279.71 166.94L279.84 168.08L279.99 169.25L280.15 170.47L280.32 171.72L280.5 173.01L280.7 174.34L280.91 175.7L281.14 177.11L281.38 178.55L281.63 180.03L281.9 181.55L282.18 183.11L274.13 183.11L273.84 181.77L273.57 180.44L273.3 179.12L273.06 177.82L272.82 176.54L272.6 175.27L272.4 174.01L272.21 172.76L272.03 171.53L271.87 170.32L271.72 169.11L271.59 167.93L271.47 166.75L271.36 165.59L271.27 164.44L271.19 163.31L271.13 162.19L271.08 161.09L271.04 160L271.02 158.92L271.02 157.86L271.02 156.81L271.04 155.78L271.08 154.76L271.13 153.75L271.19 152.76L271.22 152.42L266.21 145.81L264.29 161.21L259.31 150.85L258.39 164.04L258.1 163.55L257.82 163.05L257.55 162.55L257.29 162.05L257.04 161.56L256.79 161.06L256.56 160.56L256.34 160.07L256.13 159.57L255.93 159.07L255.73 158.57L255.55 158.08L255.38 157.58L255.21 157.08L255.06 156.59L254.91 156.09L254.78 155.59L254.66 155.1L254.54 154.6L254.44 154.11L254.34 153.61L254.26 153.11L254.18 152.62L254.12 152.12L254.06 151.63L254.01 151.13L253.98 150.64L253.95 150.14L253.93 149.64L253.93 149.15L253.93 148.65L253.94 148.16L253.97 147.66L254 147.17L254.04 146.67L254.09 146.18L254.16 145.68L254.23 145.19L254.35 144.45L254.48 143.73L254.62 143.01L254.76 142.3L254.92 141.61L255.09 140.92L255.26 140.25L255.45 139.59L255.64 138.94L255.84 138.3L256.05 137.67L256.27 137.06L256.5 136.46L256.73 135.87L256.97 135.3L257.22 134.74L257.48 134.19L257.74 133.66L258.01 133.14L258.28 132.64L258.57 132.15L258.86 131.68L259.15 131.23L259.45 130.79L259.76 130.36L260.07 129.95L260.39 129.56L260.72 129.19L261.04 128.83L261.38 128.5L261.72 128.18L262.06 127.87L262.41 127.59L262.76 127.32L263.12 127.08L263.48 126.85L263.84 126.64L264.21 126.45L265.34 125.91L266.43 125.37L267.47 124.85L268.47 124.35L269.43 123.86L270.35 123.4L271.24 122.96L272.08 122.54L272.9 122.14L273.68 121.78L274.43 121.44L275.15 121.14L275.84 120.86L276.51 120.63L277.15 120.42L277.78 120.26L278.38 120.13L278.96 120.05L279.52 120L280.07 120.01L280.6 120.06Z" id="lnBweTUbE"></path><path d="M90.81 198.29C91.92 202.24 94.44 205.42 98.35 207.82L95.34 199.87L101.08 204.21L98.07 194.65L104.89 197.76L101.29 187.85L107.19 191.81L103.38 185.09C107.97 186.59 110.3 186.97 110.38 186.23C110.79 182.42 109.74 179.56 107.23 177.66C99.27 171.64 98.45 175.15 91.68 184.11C89.51 186.97 89.14 192.36 90.81 198.29Z" id="c2HbwYZyd"></path><path d="M136.71 179.26C141.13 183.79 143.65 189.72 144.26 197.02L135.85 186.82L137.81 198.14L127.31 186.72L126.97 198.64L116.39 186.12L117.76 197.38L111.46 186.97C110.46 194.55 109.46 198.11 108.44 197.66C103.22 195.36 100.18 191.73 99.32 186.77C96.6 171.07 101.7 172.57 117.7 169.8C122.82 168.91 130.07 172.45 136.71 179.26Z" id="a1yIRbE2rD"></path><path d="M95.81 202.04C96.92 205.99 99.44 209.17 103.35 211.57L100.34 203.62L106.08 207.96L103.07 198.4L109.89 201.51L106.29 191.6L112.19 195.56L108.38 188.84C112.97 190.34 115.3 190.72 115.38 189.98C115.79 186.17 114.74 183.31 112.23 181.41C104.27 175.39 103.45 178.9 96.68 187.86C94.51 190.72 94.14 196.11 95.81 202.04Z" id="b1kZd7AUmI"></path><path d="M602 121.61C603.87 127.67 603.42 134.09 600.63 140.87L597.79 127.96L594.38 138.93L590.23 123.98L584.5 134.44L580.78 118.47L576.87 129.12L576 116.99C571.67 123.28 569.15 125.99 568.45 125.12C564.85 120.7 563.79 116.09 565.29 111.28C570.02 96.07 573.87 99.72 589.38 104.54C594.34 106.08 599.18 112.53 602 121.61Z" id="e7m0wfONP"></path><path d="M555.21 123.28C554.4 127.3 555.19 131.28 557.58 135.2L558.53 126.75L561.66 133.23L563.33 123.35L567.99 129.22L569.3 118.76L572.74 124.97L572.41 117.25C575.81 120.68 577.72 122.08 578.13 121.45C580.23 118.25 580.59 115.22 579.22 112.39C574.88 103.41 572.55 106.16 562.44 111.05C559.21 112.61 556.42 117.24 555.21 123.28Z" id="c2CWWkOcjn"></path><path d="M574.79 154.03C574.79 144.55 573.66 133.11 571.42 119.7L580.4 119.7C582.72 129.02 583.88 140.14 583.88 153.05C583.88 165.96 582.72 180.67 580.4 197.18L571.42 197.18C573.66 177.89 574.79 163.51 574.79 154.03Z" id="f2DGQ9Jls"></path><path d="M533.77 196.89C511.6 197.2 500.51 197.78 500.51 198.64C500.51 199.92 533.77 199.8 533.77 202.02C533.77 204.24 497.14 206.14 500.51 207.52C503.89 208.89 546.63 206.17 547.27 207.52C547.91 208.86 507.83 211.54 506.08 215.9C504.34 220.26 538.73 221.21 540.28 224.96C541.82 228.71 508.9 223.68 509.27 227.9C509.64 232.12 581.64 238.37 541.77 241.86C501.89 245.35 386.77 244.23 349.77 241.86C312.77 239.5 389.02 236.77 393.77 232.4C398.52 228.03 366.6 226.92 368.77 224.4C370.94 221.88 405.61 225.33 402.44 222.33C399.26 219.32 355.75 214.86 356.08 212.37C356.42 209.88 401.35 214.95 403.77 212.37C406.19 209.78 365.77 203.92 365.77 202.02C365.77 200.11 400.77 207.43 403.77 204.74C405.77 202.94 397.1 198.45 377.77 191.24L403.77 191.24L533.77 196.89Z" id="enHU8ihOF"></path><path d="M149.24 127.51L149.88 127.64L150.54 127.8L151.24 127.99L151.97 128.2L152.74 128.44L153.54 128.71L154.37 129L155.24 129.3L156.15 129.63L157.1 129.97L158.1 130.32L159.13 130.68L160.21 131.05L161.33 131.43L161.7 131.57L162.06 131.72L162.43 131.9L162.8 132.09L163.16 132.31L163.53 132.54L163.89 132.8L164.26 133.08L164.62 133.37L164.98 133.68L165.34 134.02L165.69 134.37L166.05 134.74L166.4 135.13L166.75 135.53L167.09 135.95L167.44 136.39L167.78 136.85L168.11 137.32L168.45 137.81L168.77 138.32L169.1 138.84L169.42 139.38L169.74 139.93L170.05 140.5L170.35 141.08L170.65 141.68L170.95 142.29L171.24 142.91L171.52 143.55L171.8 144.2L172.07 144.87L172.34 145.55L172.59 146.24L172.85 146.94L173.09 147.66L173.33 148.38L173.48 148.87L173.62 149.37L173.75 149.86L173.87 150.35L173.99 150.85L174.09 151.35L174.19 151.85L174.28 152.35L174.36 152.85L174.42 153.35L174.48 153.86L174.53 154.37L174.58 154.88L174.61 155.39L174.63 155.9L174.65 156.42L174.65 156.93L174.65 157.45L174.63 157.97L174.61 158.49L174.58 159.01L174.54 159.54L174.49 160.06L174.43 160.59L174.36 161.12L174.28 161.65L174.2 162.18L174.1 162.72L174 163.25L173.88 163.79L173.76 164.33L173.63 164.87L173.49 165.41L173.34 165.96L173.18 166.5L173.01 167.05L172.83 167.6L169.79 154.73L167.14 165.7L162.83 150.81L159.53 158.09L159.55 158.18L159.79 159.19L160.02 160.22L160.23 161.27L160.44 162.34L160.63 163.42L160.81 164.52L160.98 165.64L161.14 166.77L161.29 167.93L161.43 169.1L161.55 170.29L161.67 171.49L161.77 172.72L161.86 173.96L161.95 175.22L162.02 176.5L162.08 177.79L162.12 179.1L162.16 180.43L162.19 181.78L162.2 183.14L162.2 184.53L162.2 185.93L162.18 187.34L162.15 188.78L155.03 190L155.02 188.34L154.99 186.73L154.97 185.16L154.93 183.64L154.89 182.16L154.84 180.72L154.79 179.33L154.73 177.98L154.66 176.68L154.59 175.41L154.51 174.2L154.43 173.02L154.34 171.89L154.24 170.81L154.13 169.76L154.02 168.77L153.91 167.81L153.79 166.9L153.66 166.03L153.52 165.21L153.38 164.4L153.22 163.58L153.04 162.74L152.84 161.89L152.63 161.02L152.41 160.14L152.16 159.24L151.9 158.33L151.63 157.41L151.34 156.47L151.14 155.85L151.08 155.81L151.02 156.02L150.99 155.73L150.93 155.68L150.62 155.43L150.3 155.16L149.97 154.88L149.63 154.59L149.27 154.29L148.91 153.97L148.54 153.63L148.15 153.29L147.75 152.93L147.35 152.56L146.93 152.18L146.5 151.78L148.88 163.71L142.76 154.41L143.67 170.75L136.03 162.09L136.31 177.57L130.54 167.83L131.42 181.01L131.09 180.54L130.77 180.06L130.46 179.59L130.15 179.11L129.86 178.63L129.57 178.15L129.29 177.67L129.03 177.19L128.77 176.7L128.52 176.22L128.28 175.73L128.05 175.25L127.83 174.76L127.61 174.27L127.41 173.78L127.22 173.29L127.03 172.8L126.86 172.31L126.69 171.82L126.54 171.32L126.39 170.83L126.25 170.33L126.12 169.83L126 169.34L125.89 168.84L125.79 168.34L125.7 167.84L125.61 167.33L125.54 166.83L125.47 166.33L125.42 165.82L125.37 165.31L125.33 164.81L125.31 164.3L125.29 163.79L125.28 163.28L125.28 162.77L125.29 162L125.31 161.25L125.35 160.5L125.39 159.77L125.44 159.04L125.51 158.33L125.58 157.63L125.66 156.93L125.75 156.25L125.86 155.58L125.97 154.93L126.09 154.28L126.22 153.65L126.36 153.03L126.51 152.43L126.66 151.84L126.83 151.26L127 150.69L127.18 150.14L127.37 149.61L127.57 149.09L127.78 148.59L127.99 148.1L128.22 147.63L128.45 147.18L128.68 146.74L128.93 146.32L129.18 145.91L129.44 145.53L129.7 145.16L129.98 144.81L130.26 144.48L130.54 144.17L130.84 143.88L131.14 143.61L131.44 143.35L131.75 143.12L132.71 142.44L133.64 141.77L134.52 141.13L135.36 140.51L136.17 139.92L136.95 139.35L137.69 138.8L138.41 138.29L139.09 137.81L139.75 137.36L140.24 137.04L140.52 136L140.82 134.97L141.13 134.01L141.43 133.13L141.75 132.32L142.07 131.58L142.4 130.9L142.74 130.3L143.1 129.75L143.46 129.27L143.84 128.85L144.23 128.48L144.64 128.17L145.06 127.91L145.51 127.71L145.97 127.55L146.46 127.44L146.96 127.37L147.49 127.35L148.05 127.37L148.63 127.42L148.63 127.42L149.24 127.51Z" id="bi1tl9Pjj"></path><path d="M610.24 134.7L610.88 134.82L611.54 134.98L612.24 135.17L612.97 135.38L613.74 135.63L614.54 135.89L615.37 136.18L616.24 136.49L617.15 136.81L618.1 137.15L619.1 137.5L620.13 137.86L621.21 138.24L622.33 138.62L622.7 138.75L623.06 138.9L623.43 139.08L623.8 139.27L624.16 139.49L624.53 139.73L624.89 139.98L625.26 140.26L625.62 140.55L625.98 140.87L626.34 141.2L626.69 141.55L627.05 141.92L627.4 142.31L627.75 142.71L628.09 143.14L628.44 143.58L628.78 144.03L629.11 144.51L629.45 145L629.77 145.5L630.1 146.02L630.42 146.56L630.74 147.11L631.05 147.68L631.35 148.26L631.65 148.86L631.95 149.47L632.24 150.1L632.52 150.73L632.8 151.39L633.07 152.05L633.34 152.73L633.59 153.42L633.85 154.12L634.09 154.84L634.33 155.57L634.48 156.06L634.62 156.55L634.75 157.04L634.87 157.54L634.99 158.03L635.09 158.53L635.19 159.03L635.28 159.53L635.36 160.03L635.42 160.54L635.48 161.04L635.53 161.55L635.58 162.06L635.61 162.57L635.63 163.08L635.65 163.6L635.65 164.11L635.65 164.63L635.63 165.15L635.61 165.67L635.58 166.19L635.54 166.72L635.49 167.24L635.43 167.77L635.36 168.3L635.28 168.83L635.2 169.37L635.1 169.9L635 170.44L634.88 170.97L634.76 171.51L634.63 172.05L634.49 172.6L634.34 173.14L634.18 173.69L634.01 174.23L633.83 174.78L630.79 161.92L628.14 172.88L623.83 157.99L620.53 165.27L620.55 165.36L620.79 166.37L621.02 167.4L621.23 168.45L621.44 169.52L621.63 170.6L621.81 171.7L621.98 172.82L622.14 173.96L622.29 175.11L622.43 176.28L622.55 177.47L622.67 178.68L622.77 179.9L622.86 181.14L622.95 182.4L623.02 183.68L623.08 184.97L623.12 186.29L623.16 187.61L623.19 188.96L623.2 190.33L623.2 191.71L623.2 193.11L623.18 194.53L623.15 195.96L616.03 197.18L616.02 195.53L615.99 193.91L615.97 192.35L615.93 190.82L615.89 189.34L615.84 187.91L615.79 186.51L615.73 185.16L615.66 183.86L615.59 182.6L615.51 181.38L615.43 180.21L615.34 179.08L615.24 177.99L615.13 176.95L615.02 175.95L614.91 174.99L614.79 174.08L614.66 173.21L614.52 172.39L614.38 171.58L614.22 170.76L614.04 169.92L613.84 169.07L613.63 168.2L613.41 167.32L613.16 166.43L612.9 165.52L612.63 164.59L612.34 163.66L612.14 163.03L612.08 162.99L612.02 163.2L611.99 162.91L611.93 162.86L611.62 162.61L611.3 162.35L610.97 162.07L610.63 161.77L610.27 161.47L609.91 161.15L609.54 160.82L609.15 160.47L608.75 160.11L608.35 159.74L607.93 159.36L607.5 158.96L609.88 170.89L603.76 161.6L604.67 177.93L597.03 169.28L597.31 184.75L591.54 175.01L592.42 188.2L592.09 187.72L591.77 187.25L591.46 186.77L591.15 186.29L590.86 185.81L590.57 185.33L590.29 184.85L590.03 184.37L589.77 183.89L589.52 183.4L589.28 182.92L589.05 182.43L588.83 181.94L588.61 181.46L588.41 180.97L588.22 180.48L588.03 179.99L587.86 179.49L587.69 179L587.54 178.51L587.39 178.01L587.25 177.51L587.12 177.02L587 176.52L586.89 176.02L586.79 175.52L586.7 175.02L586.61 174.52L586.54 174.01L586.47 173.51L586.42 173L586.37 172.5L586.33 171.99L586.31 171.48L586.29 170.97L586.28 170.46L586.28 169.95L586.29 169.19L586.31 168.43L586.35 167.69L586.39 166.95L586.44 166.23L586.51 165.51L586.58 164.81L586.66 164.12L586.75 163.44L586.86 162.77L586.97 162.11L587.09 161.47L587.22 160.83L587.36 160.22L587.51 159.61L587.66 159.02L587.83 158.44L588 157.88L588.18 157.33L588.37 156.79L588.57 156.27L588.78 155.77L588.99 155.28L589.22 154.81L589.45 154.36L589.68 153.92L589.93 153.5L590.18 153.1L590.44 152.71L590.7 152.34L590.98 152L591.26 151.66L591.54 151.35L591.84 151.06L592.14 150.79L592.44 150.54L592.75 150.31L593.71 149.62L594.64 148.96L595.52 148.31L596.36 147.69L597.17 147.1L597.95 146.53L598.69 145.99L599.41 145.47L600.09 144.99L600.75 144.54L601.24 144.22L601.52 143.18L601.82 142.15L602.13 141.19L602.43 140.31L602.75 139.5L603.07 138.76L603.4 138.09L603.74 137.48L604.1 136.93L604.46 136.45L604.84 136.03L605.23 135.66L605.64 135.35L606.06 135.1L606.51 134.89L606.97 134.73L607.46 134.62L607.96 134.56L608.49 134.53L609.05 134.55L609.63 134.6L609.63 134.6L610.24 134.7Z" id="b4qPy2PeQa"></path><path d="M163.49 198.12L163.51 199.48L163.51 200.81L163.48 202.1L163.42 203.37L163.33 204.6L163.22 205.8L163.08 206.97L162.91 208.1L162.71 209.21L162.49 210.28L162.24 211.33L161.96 212.34L161.95 212.39L164.92 217.01L168.1 208.2L170.63 215.02L172.81 207.37L173.06 207.9L173.29 208.42L173.51 208.95L173.7 209.47L173.88 209.98L174.04 210.49L174.18 211L174.3 211.51L174.4 212.01L174.49 212.51L174.56 213L174.61 213.49L174.64 213.98L174.65 214.46L174.64 214.94L174.62 215.41L174.58 215.89L174.52 216.35L174.44 216.82L174.34 217.28L174.23 217.74L174.09 218.19L173.94 218.64L173.77 219.09L173.5 219.75L173.21 220.39L172.9 221.01L172.58 221.61L172.25 222.19L171.9 222.75L171.54 223.29L171.17 223.81L170.79 224.31L170.4 224.78L170 225.23L169.59 225.66L169.17 226.06L168.75 226.44L168.32 226.79L167.88 227.12L167.44 227.41L166.99 227.69L166.53 227.93L166.07 228.15L165.61 228.33L165.15 228.49L164.68 228.62L164.22 228.72L162.8 228.97L161.47 229.22L160.22 229.46L159.06 229.69L157.97 229.89L156.95 230.07L155.99 230.22L155.1 230.33L154.27 230.41L153.49 230.43L152.77 230.41L152.09 230.33L151.45 230.2L150.85 229.99L150.29 229.72L149.76 229.37L149.25 228.95L148.76 228.44L148.3 227.83L147.85 227.14L147.4 226.34L146.97 225.44L146.53 224.43L146.4 224.1L145.56 223.64L144.65 223.13L143.69 222.57L142.65 221.96L141.55 221.31L140.38 220.63L139.12 219.91L138.71 219.66L138.31 219.38L137.92 219.07L137.54 218.74L137.18 218.38L136.83 218L136.49 217.59L136.16 217.15L135.85 216.7L135.56 216.22L135.27 215.72L135.01 215.2L134.76 214.66L134.52 214.1L134.3 213.52L134.1 212.92L133.91 212.31L133.75 211.67L133.6 211.03L133.47 210.36L133.35 209.69L133.26 209L133.19 208.29L133.14 207.58L133.12 207.1L133.12 206.62L133.13 206.15L133.17 205.68L133.22 205.21L133.3 204.74L133.39 204.28L133.5 203.82L133.63 203.36L133.77 202.91L133.94 202.46L134.12 202.01L134.32 201.56L134.54 201.12L134.78 200.67L135.04 200.24L135.32 199.8L135.61 199.37L135.92 198.94L136.25 198.51L136.6 198.08L136.97 197.66L137.35 197.24L137.76 196.83L137.4 204.8L141.95 199.2L142.16 208.61L148.3 203.77L148.01 213.67L152.87 208.36L151.22 215.48L151.75 215.15L152.26 214.84L152.75 214.54L153.22 214.26L153.67 214L154.1 213.76L154.51 213.53L154.86 213.34L154.88 213.16L154.94 213.3L154.98 213.28L155.13 212.9L155.49 211.99L155.81 211.09L156.09 210.21L156.33 209.36L156.54 208.52L156.71 207.71L156.85 206.89L156.97 206.02L157.06 205.11L157.12 204.15L157.16 203.15L157.17 202.11L157.16 201.01L157.12 199.88L157.06 198.7L156.97 197.47L156.85 196.2L156.71 194.89L163.26 193.86L163.36 195.31L163.44 196.74L163.44 196.74L163.49 198.12Z" id="a1nUM6dqZe"></path><path d="M259.57 230.73C260.82 226.73 259.72 222.65 256.26 218.49L254.74 226.94L250.24 220.14L247.62 229.98L240.87 223.66L238.78 234.12L233.81 227.56L234.18 235.39C229.23 231.64 226.45 230.07 225.84 230.67C222.7 233.73 222.12 236.76 224.1 239.74C230.35 249.17 233.81 246.58 248.75 242.48C253.53 241.17 257.69 236.73 259.57 230.73Z" id="a1Ads83mHO"></path><path d="M196.73 239.49C193.14 236.13 191.67 232.1 192.31 227.4L198.86 234.79L198.86 227.4L207.26 235.79L209.63 228.27L217.92 237.37L218.49 230.08L222.93 237.37C225.19 232.68 226.79 230.53 227.72 230.93C232.47 232.95 234.85 235.59 234.85 238.83C234.85 249.08 230.08 247.57 213.84 247.57C208.65 247.57 202.11 244.54 196.73 239.49Z" id="a1GC1qPPwb"></path><path d="M231.48 216.3C231.48 222.4 232.6 229.76 234.85 238.38L225.87 238.38C223.55 232.39 222.39 225.24 222.39 216.93C222.39 208.62 223.55 199.15 225.87 188.53L234.85 188.53C232.6 200.94 231.48 210.2 231.48 216.3Z" id="a3RPgVA7DC"></path><path d="M283.47 191.55L283.15 192.99L282.86 194.38L282.59 195.72L282.34 197.01L282.11 198.25L281.91 199.44L281.74 200.58L281.58 201.67L281.45 202.71L281.35 203.7L281.27 204.64L281.21 205.53L281.17 206.37L281.16 207.17L281.17 207.94L281.21 208.74L281.27 209.56L281.35 210.4L281.45 211.25L281.58 212.13L281.74 213.03L281.91 213.94L282.02 214.44L282.07 214.48L282.18 214.32L282.16 214.54L282.23 214.6L282.58 214.87L282.95 215.16L283.32 215.47L283.72 215.79L284.12 216.13L284.54 216.48L284.97 216.85L285.41 217.24L285.87 217.64L286.34 218.06L285.98 208.88L290.95 216.57L293.03 204.3L299.79 211.72L302.4 200.17L306.91 208.15L308.43 198.23L308.75 198.7L309.07 199.17L309.36 199.64L309.65 200.12L309.92 200.59L310.17 201.05L310.41 201.52L310.63 201.99L310.84 202.46L311.04 202.93L311.22 203.39L311.38 203.86L311.53 204.32L311.67 204.79L311.79 205.25L311.9 205.71L311.99 206.18L312.07 206.64L312.13 207.1L312.18 207.56L312.21 208.02L312.23 208.48L312.23 208.94L312.22 209.4L312.2 209.86L312.16 210.31L312.1 210.77L312.03 211.23L311.95 211.68L311.85 212.14L311.74 212.59L311.55 213.27L311.34 213.93L311.13 214.58L310.9 215.22L310.66 215.85L310.4 216.46L310.13 217.06L309.85 217.64L309.56 218.21L309.26 218.77L308.95 219.31L308.63 219.84L308.29 220.35L307.95 220.84L307.59 221.32L307.23 221.78L306.86 222.22L306.48 222.64L306.09 223.05L305.7 223.44L305.29 223.81L304.88 224.16L304.47 224.49L304.04 224.8L303.61 225.09L303.17 225.36L302.73 225.6L302.29 225.83L301.83 226.04L301.38 226.22L300.92 226.38L299.51 226.84L298.16 227.29L296.89 227.71L295.68 228.13L294.52 228.52L293.43 228.88L292.39 229.22L291.4 229.54L290.46 229.82L290.44 229.82L290.37 229.93L289.73 230.85L289.11 231.69L288.51 232.45L287.91 233.13L287.32 233.73L286.73 234.26L286.15 234.72L285.57 235.12L284.98 235.44L284.38 235.71L283.77 235.91L283.15 236.05L282.51 236.14L281.86 236.17L281.18 236.15L280.47 236.08L279.74 235.97L278.97 235.81L278.17 235.61L277.33 235.37L276.45 235.09L275.53 234.78L274.56 234.43L273.54 234.05L272.47 233.65L271.34 233.22L270.15 232.77L268.91 232.3L267.59 231.81L266.21 231.3L265.76 231.12L265.31 230.92L264.88 230.7L264.44 230.46L264.02 230.2L263.6 229.92L263.18 229.61L262.78 229.29L262.38 228.94L261.99 228.58L261.61 228.2L261.24 227.79L260.87 227.38L260.52 226.94L260.18 226.48L259.84 226.01L259.52 225.52L259.2 225.02L258.9 224.5L258.61 223.96L258.33 223.41L258.06 222.85L257.8 222.27L257.56 221.67L257.33 221.06L257.11 220.44L256.91 219.81L256.71 219.16L256.54 218.51L256.38 217.84L256.23 217.15L256.14 216.7L256.07 216.24L256.01 215.78L255.97 215.32L255.94 214.87L255.93 214.41L255.93 213.95L255.95 213.49L255.98 213.03L256.02 212.57L256.09 212.11L256.16 211.66L256.25 211.2L256.36 210.74L256.48 210.28L256.61 209.82L256.76 209.36L256.92 208.9L257.1 208.44L257.3 207.98L257.5 207.52L257.73 207.06L257.96 206.6L258.22 206.14L258.48 205.68L258.76 205.22L259.06 204.76L259.37 204.3L259.7 203.84L260.04 203.38L260.39 202.92L261.31 212.88L266.29 205.06L268.21 216.69L273.22 211.7L273.21 211.63L273.12 210.65L273.06 209.65L273.03 208.63L273.02 207.59L273.03 206.54L273.06 205.46L273.12 204.37L273.21 203.26L273.32 202.13L273.45 200.99L273.61 199.82L273.79 198.64L274 197.44L274.23 196.22L274.49 194.99L274.77 193.73L275.07 192.46L275.4 191.17L275.75 189.86L276.13 188.53L284.18 188.53L283.81 190.07L283.47 191.55Z" id="dVpU7TkdL"></path><path d="M602 241.02C603.87 237.5 603.42 233.78 600.63 229.84L597.79 237.34L594.38 230.97L590.23 239.65L584.5 233.58L580.78 242.84L576.87 236.66L576 243.7C571.67 240.05 569.15 238.48 568.45 238.98C564.85 241.55 563.79 244.22 565.29 247.01C570.02 255.84 573.87 253.72 589.38 250.92C594.34 250.03 599.18 246.29 602 241.02Z" id="heH8FK0Te"></path><path d="M555.21 240.05C554.4 237.72 555.19 235.41 557.58 233.14L558.53 238.04L561.66 234.28L563.33 240.01L567.99 236.6L569.3 242.67L572.74 239.07L572.41 243.55C575.81 241.56 577.72 240.75 578.13 241.11C580.23 242.97 580.59 244.72 579.22 246.37C574.88 251.58 572.55 249.98 562.44 247.15C559.21 246.24 556.42 243.56 555.21 240.05Z" id="aXM8pLdn2"></path><path d="M574.79 222.21C574.79 227.71 573.66 234.35 571.42 242.13L580.4 242.13C582.72 236.72 583.88 230.27 583.88 222.78C583.88 215.29 582.72 206.76 580.4 197.18L571.42 197.18C573.66 208.37 574.79 216.71 574.79 222.21Z" id="b7nfS1vokt"></path><path d="M622.93 203.38L623.39 204.58L623.83 205.76L624.25 206.92L624.64 208.07L625 209.2L625.35 210.32L625.67 211.42L625.96 212.51L626.23 213.58L626.48 214.63L626.7 215.68L626.9 216.7L627.07 217.71L627.22 218.71L627.34 219.69L627.43 220.48L631.99 224.36L631.49 213.48L636.5 219.95L635.53 210.72L635.92 211.15L636.3 211.58L636.66 212.01L637.01 212.45L637.34 212.89L637.66 213.33L637.96 213.77L638.25 214.21L638.53 214.66L638.79 215.11L639.04 215.57L639.27 216.02L639.49 216.48L639.69 216.94L639.88 217.4L640.05 217.87L640.21 218.34L640.36 218.81L640.49 219.28L640.6 219.76L640.7 220.23L640.79 220.72L640.86 221.2L640.92 221.68L640.96 222.17L640.99 222.66L641.01 223.16L641.01 223.89L641 224.62L640.96 225.33L640.92 226.04L640.85 226.72L640.77 227.4L640.68 228.06L640.57 228.71L640.44 229.34L640.3 229.96L640.15 230.56L639.98 231.14L639.8 231.7L639.6 232.25L639.39 232.78L639.17 233.29L638.93 233.78L638.69 234.24L638.42 234.69L638.15 235.12L637.87 235.52L637.57 235.9L637.26 236.26L636.94 236.59L636.61 236.9L636.27 237.18L635.92 237.43L634.84 238.18L633.82 238.89L632.86 239.57L631.95 240.21L631.1 240.82L630.29 241.38L629.52 241.89L628.8 242.36L628.11 242.78L627.44 243.14L626.81 243.45L626.2 243.7L625.6 243.89L625.03 244.02L624.46 244.08L623.9 244.07L623.34 243.99L622.78 243.83L622.21 243.6L621.64 243.28L621.05 242.89L620.44 242.41L619.82 241.84L619.16 241.18L618.48 240.43L617.77 239.58L617.6 239.38L616.87 239.25L615.96 239.08L614.99 238.88L613.97 238.66L612.88 238.43L611.73 238.18L610.51 237.92L609.22 237.66L608.79 237.56L608.37 237.44L607.94 237.28L607.51 237.1L607.09 236.9L606.66 236.66L606.24 236.4L605.82 236.12L605.4 235.81L604.99 235.48L604.58 235.12L604.17 234.74L603.77 234.34L603.37 233.91L602.97 233.47L602.59 233L602.21 232.51L601.83 232L601.47 231.46L601.11 230.91L600.76 230.34L600.42 229.75L600.08 229.14L599.76 228.52L599.45 227.87L599.14 227.21L598.85 226.54L598.67 226.08L598.5 225.61L598.35 225.15L598.2 224.68L598.08 224.21L597.97 223.73L597.87 223.25L597.79 222.77L597.72 222.28L597.66 221.79L597.62 221.3L597.6 220.81L597.59 220.31L597.59 219.8L597.61 219.3L597.64 218.79L597.68 218.28L597.74 217.76L597.82 217.24L597.91 216.72L598.01 216.19L598.13 215.66L598.26 215.13L598.41 214.6L598.57 214.06L598.74 213.51L598.93 212.97L601.71 221.82L603.74 213.92L607.62 224.11L611.42 216.42L615.02 227.35L617.44 219.64L618.7 228.08L619.02 227.57L619.34 227.08L619.64 226.61L619.93 226.17L620.22 225.74L620.49 225.34L620.76 224.96L621.01 224.6L621.24 224.3L621.18 224.1L621.29 224.22L621.32 224.18L621.31 223.26L621.28 222.35L621.23 221.47L621.17 220.61L621.09 219.78L620.99 218.97L620.88 218.18L620.75 217.42L620.6 216.65L620.42 215.83L620.21 214.96L619.97 214.05L619.7 213.08L619.4 212.07L619.08 211.01L618.72 209.9L618.33 208.75L617.92 207.55L617.47 206.29L617 204.99L616.49 203.65L615.96 202.25L615.4 200.81L621.4 199.71L621.93 200.95L622.44 202.18L622.44 202.18L622.93 203.38Z" id="ahBxmhi4A"></path></defs><g><g><g><use xlink:href="#c1g7mrZ23q" opacity="1" fill="#0b3b6d" fill-opacity="1"></use></g><g><use xlink:href="#a1nKyRlq2S" opacity="1" fill="url(#gradientdo19Klp94)"></use></g><g><g><use xlink:href="#b9OaJ3G4F" opacity="1" fill-opacity="0" stroke="#000000" stroke-width="1" stroke-opacity="1"></use></g></g><g><use xlink:href="#h15vjmHEIW" opacity="1" fill="#fdf8e4" fill-opacity="1"></use></g><g><use xlink:href="#d277XVZXDx" opacity="1" fill="#5e5031" fill-opacity="1"></use></g><g><use xlink:href="#a10jjXidr6" opacity="1" fill="#4f4531" fill-opacity="1"></use></g><g><use xlink:href="#a1vNTP3Ui" opacity="1" fill="#796844" fill-opacity="1"></use></g><g><use xlink:href="#c194wkVII3" opacity="1" fill="#2b261c" fill-opacity="1"></use></g><g><use xlink:href="#awtSB3sv8" opacity="1" fill="#000000" fill-opacity="1"></use></g><g><g><use xlink:href="#e3ydeyUWQM" opacity="1" fill="#000000" fill-opacity="1"></use></g><g><use xlink:href="#a1ZxNa1Cim" opacity="1" fill="#000000" fill-opacity="1"></use></g><g><use xlink:href="#b4ippCsId" opacity="1" fill="#2b261c" fill-opacity="1"></use></g></g><g><use xlink:href="#d2eGCC0iYf" opacity="1" fill="#000000" fill-opacity="1"></use></g><g><use xlink:href="#b1Y9Q3ognT" opacity="1" fill="#000000" fill-opacity="1"></use></g><g><use xlink:href="#lnBweTUbE" opacity="1" fill="#010000" fill-opacity="1"></use></g><g><use xlink:href="#c2HbwYZyd" opacity="1" fill="#000000" fill-opacity="1"></use></g><g><use xlink:href="#a1yIRbE2rD" opacity="1" fill="#000000" fill-opacity="1"></use></g><g><use xlink:href="#b1kZd7AUmI" opacity="1" fill="#000000" fill-opacity="1"></use></g><g><g><use xlink:href="#e7m0wfONP" opacity="1" fill="#000000" fill-opacity="1"></use></g><g><use xlink:href="#c2CWWkOcjn" opacity="1" fill="#000000" fill-opacity="1"></use></g><g><use xlink:href="#f2DGQ9Jls" opacity="1" fill="#2b261c" fill-opacity="1"></use></g></g><g><use xlink:href="#enHU8ihOF" opacity="1" fill="#fae1a3" fill-opacity="1"></use></g><g><use xlink:href="#bi1tl9Pjj" opacity="1" fill="#010000" fill-opacity="1"></use></g><g><use xlink:href="#b4qPy2PeQa" opacity="1" fill="#010000" fill-opacity="1"></use></g><g><use xlink:href="#a1nUM6dqZe" opacity="1" fill="#000000" fill-opacity="0.21"></use></g><g><g><use xlink:href="#a1Ads83mHO" opacity="1" fill="#000000" fill-opacity="0.18"></use></g><g><use xlink:href="#a1GC1qPPwb" opacity="1" fill="#000000" fill-opacity="0.18"></use></g><g><use xlink:href="#a3RPgVA7DC" opacity="1" fill="#000000" fill-opacity="0.18"></use></g></g><g><use xlink:href="#dVpU7TkdL" opacity="1" fill="#010000" fill-opacity="0.28"></use></g><g><g><use xlink:href="#heH8FK0Te" opacity="1" fill="#000000" fill-opacity="0.3"></use></g><g><use xlink:href="#aXM8pLdn2" opacity="1" fill="#000000" fill-opacity="0.3"></use></g><g><use xlink:href="#b7nfS1vokt" opacity="1" fill="#000000" fill-opacity="0.3"></use></g></g><g><use xlink:href="#ahBxmhi4A" opacity="1" fill="#010101" fill-opacity="0.29"></use></g></g></g></svg>