<?xml version="1.0" encoding="UTF-8" standalone="no"?>
<!DOCTYPE svg PUBLIC "-//W3C//DTD SVG 1.1//EN" "http://www.w3.org/Graphics/SVG/1.1/DTD/svg11.dtd">
<svg version="1.1" xmlns="http://www.w3.org/2000/svg" xmlns:xlink="http://www.w3.org/1999/xlink" preserveAspectRatio="xMidYMid meet" viewBox="0 0 640 320" width="640" height="320"><defs><path d="M-6.26 -3.84L646.26 -3.84L646.26 123.43L-6.26 123.43L-6.26 -3.84Z" id="c540P9ZTJc"></path><path d="M-6.26 24.24C31.45 24.24 68.48 24.24 104.85 24.24C141.21 24.24 176.9 33 211.92 50.51L426.06 50.51C456.7 32.32 490.37 20.2 527.07 14.14C563.77 8.08 603.5 8.08 646.26 14.14L646.26 323.23L-6.26 323.23L-6.26 24.24Z" id="a2AnExwVmJ"></path><path d="M-2.02 311.92C15.62 287.68 40.42 271.52 72.37 263.43C104.32 255.35 143.43 255.35 189.7 263.43L448.28 263.43C502.35 262.12 545.56 265.51 577.92 273.59C610.27 281.67 631.78 294.45 642.42 311.92L642.42 320L0 320L-2.02 311.92Z" id="bZawbCZkZ"></path><path d="M215.92 286.23C202.2 287.45 201.48 218.65 191.37 218.65C181.26 218.64 183.69 240.6 175.87 239.71C168.04 238.82 170.38 216.76 160.07 215.08C149.76 213.39 146.74 231.9 134.62 232.97C122.51 234.03 123.19 217.16 111.61 219.33C100.03 221.5 99.77 241.2 92.25 236.74C84.72 232.28 90.18 205.76 81.5 201.49C72.82 197.22 62.9 225.37 53.58 224.55C44.27 223.74 49.65 199.83 34.8 199.06C19.96 198.29 21.58 215.77 17.64 222.08C15.02 226.29 9.86 215.93 2.19 191C-4.95 244.49 -7.77 284.03 -6.26 309.64C-4 348.04 28.36 331.81 57.73 319.53C72.81 313.23 78.56 297.32 96.81 297.69C159.74 298.97 229.64 285.01 215.92 286.23Z" id="avSzItJUW"></path><path d="M625.24 336.21C649.58 335.23 650.99 293.9 644.96 294.44C638.8 294.99 647.92 265.39 644.96 240.81C641.69 213.63 626.44 191.17 621.43 191.14C611.87 191.09 614.28 248.67 606.88 247.74C599.48 246.81 601.58 224.78 591.83 223.05C582.07 221.31 579.3 239.8 567.86 240.81C556.41 241.81 556.98 224.95 546.04 227.07C535.11 229.18 534.96 248.86 527.82 244.37C520.68 239.87 525.71 213.4 517.49 209.08C509.27 204.77 500.03 232.86 491.22 232C482.41 231.14 487.38 207.26 473.34 206.43C459.31 205.59 460.93 223.06 457.23 229.35C453.54 235.64 445.18 212.05 435.04 241.49C424.89 270.93 415.68 262.47 425.21 269.76C434.75 277.05 445.46 282.77 473.16 270.64C487.38 264.41 494.36 296.83 511.61 297.29C543.44 298.14 597.23 337.34 625.24 336.21Z" id="c2LztYQxfe"></path><path d="M63.86 85.8C65.38 106.24 67.38 116.18 61.82 141.56C58.12 158.47 53.58 184.06 48.21 218.32C37.7 204.29 33.97 189.46 37 173.84C41.54 150.4 47.68 144.82 51.72 117.25C55.76 89.67 48.21 90.02 53.76 73.13C59.32 56.24 62.35 65.36 63.86 85.8Z" id="e1xIgzMx4J"></path><path d="M145.26 139.05C146.27 148.02 142.46 162.02 133.83 181.03C146.92 218.5 151.29 234.48 146.94 228.95C142.59 223.42 135.3 208.97 125.06 185.61L116.99 153.32C98.18 141.2 89.43 132.23 90.72 126.42C91.65 122.23 105.85 127.91 121.21 148.81C124.69 153.56 126.53 159.84 126.72 167.66C130.22 147 133.03 134.53 135.16 130.27C140.72 119.15 143.75 125.59 145.26 139.05Z" id="a23aw88sJN"></path><path d="M522.55 76.34C524.16 98.47 524.16 122.95 518.26 150.42C517.52 153.88 542.94 239.09 540.75 245.82C539.47 249.77 528.97 227.57 509.27 179.24C506.45 205.72 503.67 221.17 500.92 225.59C498.17 230 495.46 223.38 492.79 205.72C499.03 170.3 500.54 153.04 497.32 153.95C491.69 155.55 483.05 139.31 471.41 105.25C492.64 137.72 504.69 144 507.55 124.1C511.83 94.24 505.94 80.18 511.83 61.9C517.73 43.62 520.94 54.21 522.55 76.34Z" id="a6Agss0wtR"></path><path d="M614.09 71.01C615.61 91.45 615.61 114.06 610.05 139.44C609.43 142.28 619.75 184.65 618.36 188.48C616.84 192.64 603.54 158.35 601.12 163.67C592.47 182.68 578.02 209.13 557.77 243.03L559.22 225.05C583.68 170.15 597.26 133.51 599.95 115.13C603.99 87.55 587.77 61.9 593.32 45.01C598.88 28.12 612.58 50.57 614.09 71.01Z" id="c2kkZTeaxM"></path><path d="M34.5 91.35C32.05 93.6 26.71 113.1 26.2 121.03C25.39 133.41 24.33 139.44 27.28 154.81C29.24 165.06 31.65 180.56 34.5 201.32C40.06 192.82 42.04 183.84 40.44 174.37C38.03 160.17 34.77 156.79 32.63 140.08C30.49 123.37 35.51 124.2 35.98 112.02C36.44 99.84 36.94 89.09 34.5 91.35Z" id="c1lAFe3PEZ"></path><path d="M6.66 62.1C5.86 74.48 4.8 80.51 7.74 95.88C9.7 106.13 16.11 120.97 26.96 140.39C25.41 135.44 23.84 128.24 22.23 118.77C19.82 104.57 15.23 97.86 13.09 81.15C10.95 64.44 14.96 64.65 12.01 54.42C9.07 44.19 7.46 49.71 6.66 62.1Z" id="dNpgEvTvi"></path><path d="M-6.26 100.97C4.84 69.53 14.55 53.81 22.88 53.81C35.36 53.81 34.57 99.14 43.69 100.97C52.82 102.8 52.38 57.92 59.38 61.14C66.37 64.35 62.49 108.57 71.66 113.83C80.84 119.1 85.05 82.18 96.08 82.21C107.1 82.24 105.13 116.25 115.76 113.95C126.39 111.64 128.2 71.82 134.64 82.21C141.08 92.59 134.02 145.28 141.51 155.49C149.01 165.7 160.23 110.5 168.57 113.83C176.92 117.17 170.14 164.6 183.48 168.82C196.82 173.04 196.76 137.38 200.82 125.31C203.53 117.27 206.34 117.95 209.23 127.35L220.61 53.81C202.85 32.78 175.07 17.61 137.25 8.32C99.44 -0.96 51.6 -4.38 -6.26 -1.92L-6.26 100.97Z" id="hjtbrGN7V"></path><path d="M640 111.65C635.72 75.68 631.08 58.76 626.06 60.89C618.54 64.07 616.97 120.65 609.9 124.39C602.83 128.14 605.35 72.13 597.78 75.88C590.2 79.62 587.68 136.22 579.6 139.38C571.52 142.54 571.52 85.03 565.45 88.51C559.39 91.98 561.41 153.3 555.35 153.3C549.29 153.3 548.28 88.51 541.21 88.51C534.14 88.51 535.15 147.51 527.07 153.3C518.99 159.08 515.45 109.33 508.89 111.65C502.32 113.96 507.88 155.62 500.81 162.55C493.74 169.49 489.22 137.07 480.61 139.38C471.99 141.7 473.02 175.55 466.33 171.81C459.65 168.06 464.36 124.39 453.86 124.39C446.87 124.39 437.03 140.2 424.35 171.81L419.39 45.01C433.53 34.51 458.95 22.71 495.65 9.6C532.35 -3.52 582.55 -3.44 646.26 9.83L640 111.65Z" id="bf8OUwqA0"></path><path d="M213.95 51.04C235.16 29.24 399.31 39.38 417.99 46.68C430.45 51.54 430.45 127.56 417.99 274.75L195.77 274.75C193.75 140.14 199.81 65.57 213.95 51.04Z" id="d1YiN2ih6r"></path><path d="M409.76 203.15L411.49 203.4L413.19 203.71L414.88 204.09L416.54 204.54L418.17 205.04L419.77 205.61L421.34 206.24L422.89 206.93L424.4 207.68L425.87 208.48L427.32 209.34L428.72 210.25L430.09 211.21L431.42 212.23L432.7 213.29L433.95 214.4L435.15 215.56L436.31 216.76L437.42 218L438.48 219.29L439.49 220.62L440.46 221.99L441.37 223.39L442.22 224.83L443.03 226.31L443.77 227.82L444.46 229.36L445.09 230.94L445.66 232.54L446.17 234.17L446.62 235.83L447 237.51L447.31 239.22L447.56 240.95L447.73 242.7L447.84 244.47L447.88 246.26L447.84 248.05L447.73 249.82L447.56 251.57L447.31 253.3L447 255.01L446.62 256.7L446.17 258.35L445.66 259.99L445.09 261.59L444.46 263.16L443.77 264.71L443.03 266.22L442.22 267.69L441.37 269.13L440.46 270.54L439.49 271.91L438.48 273.24L437.42 274.52L436.31 275.77L435.15 276.97L433.95 278.13L432.7 279.24L431.42 280.3L430.09 281.31L428.72 282.27L427.32 283.19L425.87 284.04L424.4 284.85L422.89 285.59L421.34 286.28L419.77 286.91L418.17 287.48L416.54 287.99L414.88 288.43L413.19 288.81L411.49 289.13L409.76 289.37L408 289.55L406.23 289.66L404.44 289.7L402.66 289.66L400.88 289.55L399.13 289.37L397.4 289.13L395.7 288.81L394.01 288.43L392.35 287.99L390.72 287.48L389.12 286.91L387.54 286.28L386 285.59L385.15 285.17L384.3 285.59L382.76 286.28L381.18 286.91L379.58 287.48L377.95 287.99L376.29 288.43L374.61 288.81L372.9 289.13L371.17 289.37L369.42 289.55L367.65 289.66L365.86 289.7L364.07 289.66L362.3 289.55L360.55 289.37L358.82 289.13L357.11 288.81L355.43 288.43L353.77 287.99L352.14 287.48L350.53 286.91L348.96 286.28L347.42 285.59L345.91 284.85L344.43 284.04L342.99 283.19L341.72 282.36L340.45 283.19L339.01 284.04L337.53 284.85L336.02 285.59L334.48 286.28L332.9 286.91L331.3 287.48L329.67 287.99L328.01 288.43L326.32 288.81L324.62 289.13L322.89 289.37L321.14 289.55L319.36 289.66L317.58 289.7L315.79 289.66L314.02 289.55L312.26 289.37L310.53 289.13L308.83 288.81L307.14 288.43L305.48 287.99L303.85 287.48L302.25 286.91L300.68 286.28L299.13 285.59L297.62 284.85L296.15 284.04L294.7 283.19L293.3 282.27L291.93 281.31L291.41 280.92L290.9 281.31L289.53 282.27L288.12 283.19L286.68 284.04L285.21 284.85L283.7 285.59L282.15 286.28L280.58 286.91L278.97 287.48L277.34 287.99L275.69 288.43L274 288.81L272.29 289.13L270.56 289.37L268.81 289.55L267.04 289.66L265.25 289.7L263.46 289.66L261.69 289.55L259.94 289.37L258.21 289.13L256.5 288.81L254.82 288.43L253.16 287.99L251.53 287.48L249.93 286.91L248.35 286.28L246.81 285.59L245.3 284.85L245.15 284.77L245 284.85L243.49 285.59L241.95 286.28L240.38 286.91L238.77 287.48L237.14 287.99L235.48 288.43L233.8 288.81L232.09 289.13L230.36 289.37L228.61 289.55L226.84 289.66L225.05 289.7L223.26 289.66L221.49 289.55L219.74 289.37L218.01 289.13L216.3 288.81L214.62 288.43L212.96 287.99L211.33 287.48L209.72 286.91L208.15 286.28L206.61 285.59L205.1 284.85L203.62 284.04L202.18 283.19L200.77 282.27L199.41 281.31L198.08 280.3L196.79 279.24L195.55 278.13L194.34 276.97L193.19 275.77L192.08 274.52L191.01 273.24L190 271.91L189.04 270.54L188.13 269.13L187.27 267.69L186.47 266.22L185.72 264.71L185.03 263.16L184.4 261.59L183.83 259.99L183.32 258.35L182.88 256.7L182.5 255.01L182.19 253.3L181.94 251.57L181.76 249.82L181.65 248.05L181.62 246.26L181.65 244.47L181.76 242.7L181.94 240.95L182.19 239.22L182.5 237.51L182.88 235.83L183.32 234.17L183.83 232.54L184.4 230.94L185.03 229.36L185.72 227.82L186.47 226.31L187.27 224.83L188.13 223.39L189.04 221.99L190 220.62L191.01 219.29L192.08 218L193.19 216.76L194.34 215.56L195.55 214.4L196.79 213.29L198.08 212.23L199.41 211.21L200.77 210.25L202.18 209.34L203.62 208.48L205.1 207.68L206.61 206.93L208.15 206.24L209.72 205.61L211.33 205.04L212.96 204.54L214.62 204.09L216.3 203.71L218.01 203.4L219.74 203.15L221.49 202.97L223.26 202.86L225.05 202.83L226.84 202.86L228.61 202.97L230.36 203.15L232.09 203.4L233.8 203.71L235.48 204.09L237.14 204.54L238.77 205.04L240.38 205.61L241.95 206.24L243.49 206.93L245 207.68L245.15 207.76L245.3 207.68L246.81 206.93L248.35 206.24L249.93 205.61L251.53 205.04L253.16 204.54L254.82 204.09L256.5 203.71L258.21 203.4L259.94 203.15L261.69 202.97L263.46 202.86L265.25 202.83L267.04 202.86L268.81 202.97L270.56 203.15L272.29 203.4L274 203.71L275.69 204.09L277.34 204.54L278.97 205.04L280.58 205.61L282.15 206.24L283.7 206.93L285.21 207.68L286.68 208.48L288.12 209.34L289.53 210.25L290.9 211.21L291.41 211.61L291.93 211.21L293.3 210.25L294.7 209.34L296.15 208.48L297.62 207.68L299.13 206.93L300.68 206.24L302.25 205.61L303.85 205.04L305.48 204.54L307.14 204.09L308.83 203.71L310.53 203.4L312.26 203.15L314.02 202.97L315.79 202.86L317.58 202.83L319.36 202.86L321.14 202.97L322.89 203.15L324.62 203.4L326.32 203.71L328.01 204.09L329.67 204.54L331.3 205.04L332.9 205.61L334.48 206.24L336.02 206.93L337.53 207.68L339.01 208.48L340.45 209.34L341.72 210.16L342.99 209.34L344.43 208.48L345.91 207.68L347.42 206.93L348.96 206.24L350.53 205.61L352.14 205.04L353.77 204.54L355.43 204.09L357.11 203.71L358.82 203.4L360.55 203.15L362.3 202.97L364.07 202.86L365.86 202.83L367.65 202.86L369.42 202.97L371.17 203.15L372.9 203.4L374.61 203.71L376.29 204.09L377.95 204.54L379.58 205.04L381.18 205.61L382.76 206.24L384.3 206.93L385.15 207.35L386 206.93L387.54 206.24L389.12 205.61L390.72 205.04L392.35 204.54L394.01 204.09L395.7 203.71L397.4 203.4L399.13 203.15L400.88 202.97L402.66 202.86L404.44 202.83L406.23 202.86L408 202.97L408 202.97L409.76 203.15Z" id="aqfTcYGSJ"></path><path d="M416.46 188.89L418.38 189.2L420.27 189.59L422.13 190.07L423.96 190.63L425.77 191.27L427.54 191.98L429.28 192.77L430.99 193.64L432.66 194.58L434.3 195.58L435.89 196.66L437.44 197.81L438.96 199.01L440.43 200.29L441.85 201.62L443.23 203.02L444.56 204.47L445.84 205.98L447.06 207.54L448.24 209.16L449.36 210.83L450.43 212.54L451.43 214.31L452.38 216.12L453.27 217.97L454.1 219.87L454.86 221.81L455.55 223.78L456.19 225.8L456.75 227.85L457.24 229.93L457.66 232.04L458.01 234.19L458.28 236.36L458.48 238.56L458.6 240.78L458.64 243.03L458.6 245.28L458.48 247.5L458.28 249.7L458.01 251.87L457.66 254.02L457.24 256.13L456.75 258.21L456.19 260.26L455.55 262.28L454.86 264.25L454.1 266.19L453.27 268.09L452.38 269.94L451.43 271.75L450.43 273.52L449.36 275.24L448.24 276.9L447.06 278.52L445.84 280.08L444.56 281.59L443.23 283.04L441.85 284.44L440.43 285.77L438.96 287.05L437.44 288.25L435.89 289.4L434.3 290.48L432.66 291.48L430.99 292.42L429.28 293.29L427.54 294.08L425.77 294.79L423.96 295.43L422.13 295.99L420.27 296.47L418.38 296.86L416.46 297.17L414.53 297.39L412.57 297.53L410.59 297.58L408.61 297.53L406.65 297.39L404.71 297.17L402.8 296.86L400.91 296.47L399.05 295.99L397.21 295.43L395.41 294.79L393.63 294.08L391.89 293.29L390.19 292.42L389.25 291.89L388.31 292.42L386.6 293.29L384.86 294.08L383.08 294.79L381.28 295.43L379.44 295.99L377.58 296.47L375.69 296.86L373.78 297.17L371.84 297.39L369.88 297.53L367.9 297.58L365.92 297.53L363.97 297.39L362.03 297.17L360.11 296.86L358.23 296.47L356.36 295.99L354.53 295.43L352.72 294.79L350.95 294.08L349.21 293.29L347.5 292.42L345.83 291.48L344.2 290.48L342.6 289.4L341.2 288.37L339.79 289.4L338.2 290.48L336.57 291.48L334.89 292.42L333.19 293.29L331.45 294.08L329.67 294.79L327.87 295.43L326.03 295.99L324.17 296.47L322.28 296.86L320.37 297.17L318.43 297.39L316.47 297.53L314.49 297.58L312.51 297.53L310.55 297.39L308.62 297.17L306.7 296.86L304.81 296.47L302.95 295.99L301.12 295.43L299.31 294.79L297.54 294.08L295.8 293.29L294.09 292.42L292.42 291.48L290.79 290.48L289.19 289.4L287.64 288.25L286.12 287.05L285.55 286.55L284.98 287.05L283.47 288.25L281.91 289.4L280.32 290.48L278.68 291.48L277.01 292.42L275.31 293.29L273.57 294.08L271.79 294.79L269.99 295.43L268.15 295.99L266.29 296.47L264.4 296.86L262.49 297.17L260.55 297.39L258.59 297.53L256.61 297.58L254.63 297.53L252.67 297.39L250.74 297.17L248.82 296.86L246.93 296.47L245.07 295.99L243.24 295.43L241.43 294.79L239.66 294.08L237.92 293.29L236.21 292.42L234.54 291.48L234.38 291.38L234.21 291.48L232.54 292.42L230.83 293.29L229.09 294.08L227.32 294.79L225.51 295.43L223.68 295.99L221.82 296.47L219.93 296.86L218.01 297.17L216.08 297.39L214.12 297.53L212.14 297.58L210.16 297.53L208.2 297.39L206.26 297.17L204.35 296.86L202.46 296.47L200.6 295.99L198.76 295.43L196.96 294.79L195.19 294.08L193.44 293.29L191.74 292.42L190.07 291.48L188.43 290.48L186.84 289.4L185.28 288.25L183.77 287.05L182.3 285.77L180.88 284.44L179.5 283.04L178.17 281.59L176.89 280.08L175.66 278.52L174.49 276.9L173.37 275.24L172.3 273.52L171.29 271.75L170.35 269.94L169.46 268.09L168.63 266.19L167.87 264.25L167.17 262.28L166.54 260.26L165.98 258.21L165.49 256.13L165.07 254.02L164.72 251.87L164.45 249.7L164.25 247.5L164.13 245.28L164.09 243.03L164.13 240.78L164.25 238.56L164.45 236.36L164.72 234.19L165.07 232.04L165.49 229.93L165.98 227.85L166.54 225.8L167.17 223.78L167.87 221.81L168.63 219.87L169.46 217.97L170.35 216.12L171.29 214.31L172.3 212.54L173.37 210.83L174.49 209.16L175.66 207.54L176.89 205.98L178.17 204.47L179.5 203.02L180.88 201.62L182.3 200.29L183.77 199.01L185.28 197.81L186.84 196.66L188.43 195.58L190.07 194.58L191.74 193.64L193.44 192.77L195.19 191.98L196.96 191.27L198.76 190.63L200.6 190.07L202.46 189.59L204.35 189.2L206.26 188.89L208.2 188.67L210.16 188.53L212.14 188.48L214.12 188.53L216.08 188.67L218.01 188.89L219.93 189.2L221.82 189.59L223.68 190.07L225.51 190.63L227.32 191.27L229.09 191.98L230.83 192.77L232.54 193.64L234.21 194.58L234.38 194.68L234.54 194.58L236.21 193.64L237.92 192.77L239.66 191.98L241.43 191.27L243.24 190.63L245.07 190.07L246.93 189.59L248.82 189.2L250.74 188.89L252.67 188.67L254.63 188.53L256.61 188.48L258.59 188.53L260.55 188.67L262.49 188.89L264.4 189.2L266.29 189.59L268.15 190.07L269.99 190.63L271.79 191.27L273.57 191.98L275.31 192.77L277.01 193.64L278.68 194.58L280.32 195.58L281.91 196.66L283.47 197.81L284.98 199.01L285.55 199.51L286.12 199.01L287.64 197.81L289.19 196.66L290.79 195.58L292.42 194.58L294.09 193.64L295.8 192.77L297.54 191.98L299.31 191.27L301.12 190.63L302.95 190.07L304.81 189.59L306.7 189.2L308.62 188.89L310.55 188.67L312.51 188.53L314.49 188.48L316.47 188.53L318.43 188.67L320.37 188.89L322.28 189.2L324.17 189.59L326.03 190.07L327.87 190.63L329.67 191.27L331.45 191.98L333.19 192.77L334.89 193.64L336.57 194.58L338.2 195.58L339.79 196.66L341.2 197.7L342.6 196.66L344.2 195.58L345.83 194.58L347.5 193.64L349.21 192.77L350.95 191.98L352.72 191.27L354.53 190.63L356.36 190.07L358.23 189.59L360.11 189.2L362.03 188.89L363.97 188.67L365.92 188.53L367.9 188.48L369.88 188.53L371.84 188.67L373.78 188.89L375.69 189.2L377.58 189.59L379.44 190.07L381.28 190.63L383.08 191.27L384.86 191.98L386.6 192.77L388.31 193.64L389.25 194.17L390.19 193.64L391.89 192.77L393.63 191.98L395.41 191.27L397.21 190.63L399.05 190.07L400.91 189.59L402.8 189.2L404.71 188.89L406.65 188.67L408.61 188.53L410.59 188.48L412.57 188.53L414.53 188.67L414.53 188.67L416.46 188.89Z" id="b4vL8M072A"></path><path d="M287.92 50.8C291.57 49.99 287.37 65.1 287.92 71.44C289.11 85.24 291.98 96.29 287.92 99.18C282.91 102.75 280.64 99.42 281.08 89.22C283.2 64.15 285.48 51.35 287.92 50.8Z" id="j1T1FfLpV"></path><path d="M242.94 77.59C246.6 76.77 242.39 91.88 242.94 98.22C244.14 112.02 247 123.07 242.94 125.97C237.94 129.53 235.66 126.21 236.11 116C238.23 90.93 240.51 78.13 242.94 77.59Z" id="b1krKaSgY7"></path><path d="M251.93 161.23C255.59 160.41 251.38 175.52 251.93 181.86C253.13 195.66 256 206.71 251.93 209.61C246.93 213.17 244.65 209.85 245.1 199.64C247.22 174.57 249.5 161.77 251.93 161.23Z" id="f4gRQMZWT"></path><path d="M302.7 141.59C306.35 140.77 302.15 155.88 302.7 162.23C303.89 176.03 306.76 187.08 302.7 189.97C297.7 193.53 295.42 190.21 295.86 180C297.98 154.94 300.26 142.13 302.7 141.59Z" id="bj4RWkHHt"></path><path d="M348.02 98.59C351.67 97.77 347.47 112.88 348.02 119.23C349.21 133.03 352.08 144.08 348.02 146.97C343.01 150.53 340.73 147.21 341.18 137.01C343.3 111.94 345.58 99.13 348.02 98.59Z" id="ayuIsWuhw"></path><path d="M390.61 56.68C394.26 55.86 390.06 70.97 390.61 77.32C391.81 91.12 394.67 102.17 390.61 105.06C385.61 108.62 383.33 105.3 383.77 95.1C385.89 70.03 388.17 57.22 390.61 56.68Z" id="c13NylKjhv"></path><path d="M388.47 136.33C392.12 135.51 387.92 150.62 388.47 156.97C389.67 170.76 392.53 181.82 388.47 184.71C383.47 188.27 381.19 184.95 381.63 174.74C383.76 149.68 386.03 136.87 388.47 136.33Z" id="eB2hFJX28"></path></defs><g><g><g><use xlink:href="#c540P9ZTJc" opacity="1" fill="#26d3d7" fill-opacity="1"></use></g><g><use xlink:href="#a2AnExwVmJ" opacity="1" fill="#d3a30e" fill-opacity="1"></use></g><g><use xlink:href="#bZawbCZkZ" opacity="1" fill="#4c82bb" fill-opacity="1"></use></g><g><use xlink:href="#avSzItJUW" opacity="1" fill="#414c58" fill-opacity="1"></use></g><g><use xlink:href="#c2LztYQxfe" opacity="1" fill="#3d3f49" fill-opacity="1"></use></g><g><use xlink:href="#e1xIgzMx4J" opacity="1" fill="#3d9405" fill-opacity="0.97"></use></g><g><use xlink:href="#a23aw88sJN" opacity="1" fill="#3c9304" fill-opacity="0.97"></use></g><g><use xlink:href="#a6Agss0wtR" opacity="1" fill="#3c9304" fill-opacity="0.97"></use></g><g><use xlink:href="#c2kkZTeaxM" opacity="1" fill="#3c9304" fill-opacity="0.97"></use></g><g><use xlink:href="#c1lAFe3PEZ" opacity="1" fill="#3c9304" fill-opacity="0.97"></use></g><g><use xlink:href="#dNpgEvTvi" opacity="1" fill="#3c9304" fill-opacity="0.97"></use></g><g><use xlink:href="#hjtbrGN7V" opacity="1" fill="#16f44b" fill-opacity="1"></use></g><g><use xlink:href="#bf8OUwqA0" opacity="1" fill="#16f44b" fill-opacity="1"></use></g><g><use xlink:href="#d1YiN2ih6r" opacity="1" fill="#4c82bb" fill-opacity="0.92"></use></g><g><use xlink:href="#aqfTcYGSJ" opacity="1" fill="#8dcccd" fill-opacity="0.61"></use></g><g><use xlink:href="#b4vL8M072A" opacity="1" fill="#8ccccd" fill-opacity="0.37"></use></g><g><g><use xlink:href="#j1T1FfLpV" opacity="1" fill="#b6cccd" fill-opacity="0.4"></use></g><g><use xlink:href="#b1krKaSgY7" opacity="1" fill="#b6cccd" fill-opacity="0.4"></use></g><g><use xlink:href="#f4gRQMZWT" opacity="1" fill="#b6cccd" fill-opacity="0.4"></use></g><g><use xlink:href="#bj4RWkHHt" opacity="1" fill="#b6cccd" fill-opacity="0.4"></use></g><g><use xlink:href="#ayuIsWuhw" opacity="1" fill="#b6cccd" fill-opacity="0.4"></use></g><g><use xlink:href="#c13NylKjhv" opacity="1" fill="#b6cccd" fill-opacity="0.4"></use></g><g><use xlink:href="#eB2hFJX28" opacity="1" fill="#b6cccd" fill-opacity="0.4"></use></g></g></g></g></svg>