<?xml version="1.0" encoding="UTF-8" standalone="no"?>
<!DOCTYPE svg PUBLIC "-//W3C//DTD SVG 1.1//EN" "http://www.w3.org/Graphics/SVG/1.1/DTD/svg11.dtd">
<svg version="1.1" xmlns="http://www.w3.org/2000/svg" xmlns:xlink="http://www.w3.org/1999/xlink" preserveAspectRatio="xMidYMid meet" viewBox="0 0 640 320" width="640" height="320"><defs><path d="M-2.22 -3.84L642.22 -3.84L642.22 323.43L-2.22 323.43L-2.22 -3.84Z" id="a30Ybg6KjL"></path><path d="M302.78 150.87C334.04 163.2 317.49 231.04 263.4 189.6C209.32 148.16 257.02 121.09 290.92 117.76C324.82 114.44 353.42 135.41 391.94 133.39C430.46 131.37 426.93 115.09 469.62 91.58C498.08 75.91 527.56 71.12 558.05 77.2" id="cnrKJ6ST2"></path><path d="M359.87 181.5C396.17 200.45 281.93 263.85 218.06 202.85C154.19 141.86 217.22 76.69 255.69 73.84C294.16 70.99 327.88 101.91 371.69 101.15C415.49 100.38 410.6 77.35 458.01 46.68C489.62 26.23 522.97 21.08 558.05 31.24" id="aZJim4sEn"></path><path d="M630.61 152.25C626.57 172.37 620.97 189.12 613.83 202.47C601.14 226.22 583.84 239.4 572.82 246.77C539.91 268.77 503.14 271.58 490.74 253.04C478.35 234.5 487.74 216.17 520.64 194.17C553.55 172.17 550.32 193.8 594.7 173.85C601.06 170.99 613.03 163.79 630.61 152.25Z" id="c6KCD0cZF"></path><path d="M519.2 232.05L542.17 190.57L530.51 226.55C534.37 223.3 543.03 217.48 556.49 209.07C576.67 196.46 612.28 172.74 616.24 172.11C618.89 171.69 603.59 184.49 570.35 210.54L597.23 213.67L554.25 220.69L548.63 225.09L498.24 248.84L519.2 232.05Z" id="a2aJwcV4Qy"></path><path d="M218.29 307.55C203.33 306.5 190.74 304.24 180.52 300.76C162.37 294.58 151.65 284.74 145.57 278.4C127.42 259.46 123.05 236.69 135.83 227.58C148.6 218.48 162.59 223 180.74 241.93C198.88 260.87 182.88 260.45 200.25 286.7C202.74 290.47 208.75 297.42 218.29 307.55Z" id="ahwLzrmXz"></path><path d="M152.46 243.37L184.23 254.67L157.19 250.03C159.81 252.21 164.61 257.19 171.6 264.97C182.09 276.66 201.66 297.16 202.37 299.59C202.85 301.21 192.52 292.59 171.4 273.74L170.8 290.77L162.97 264.43L159.4 261.24L138.87 231.51L152.46 243.37Z" id="a3Z9N35hf"></path><path d="M5.28 230.9C19.93 233.75 32.65 234.97 43.43 234.56C62.59 233.82 75.65 228.11 83.27 224.22C106.01 212.6 116.6 194.27 106.91 183.31C97.22 172.35 82.52 172.7 59.78 184.32C37.03 195.94 52.52 199.57 28.46 217.63C25.01 220.22 17.28 224.64 5.28 230.9Z" id="abdWB6LQc"></path><path d="M86.51 192.61L52.84 194.31L80.09 197.12C76.97 198.32 70.96 201.36 62.06 206.26C48.71 213.6 24.16 226.19 22.79 228.09C21.88 229.35 34.21 224.58 59.79 213.79L55.57 228.46L70.5 207.95L74.82 206.13L102.88 185.9L86.51 192.61Z" id="a244Apk0pW"></path><path d="M310.66 42.62C304.39 43.29 299.25 43.3 295.23 42.66C288.1 41.53 284.48 38.43 282.5 36.37C276.6 30.21 276.94 21.55 283.26 17.04C289.58 12.54 295.11 13.31 301.01 19.47C306.91 25.63 300.13 26.61 304.99 35.71C305.69 37.01 307.58 39.32 310.66 42.62Z" id="a1NHHt9HZJ"></path><path d="M230.63 99.26C227.5 104.24 225.49 108.31 224.61 111.45C223.05 117.05 224.94 119.8 226.37 121.28C230.62 125.72 239.95 125.14 247.18 119.98C254.41 114.83 255.73 110.49 251.47 106.05C247.22 101.61 243.55 107 235.78 103.49C234.66 102.99 232.95 101.58 230.63 99.26Z" id="dK6RFlRbH"></path><path d="M194.1 64.4C194.1 80.96 180.81 94.4 164.45 94.4C148.09 94.4 134.81 80.96 134.81 64.4C134.81 47.84 148.09 82.4 164.45 82.4C180.81 82.4 194.1 47.84 194.1 64.4Z" id="c3rjHfoFUh"></path><path d="M353.56 141.84C350.44 145.79 348.33 148.97 347.21 151.35C345.23 155.6 346.32 157.41 347.22 158.35C349.9 161.15 357.22 159.77 363.54 155.26C369.86 150.76 371.48 147.46 368.79 144.65C366.1 141.85 362.52 146.16 356.97 144.4C356.18 144.14 355.04 143.29 353.56 141.84Z" id="bWQgir2QJ"></path><path d="M400.1 274.12C425.99 246.19 439.04 224.83 439.27 210.06C439.62 187.9 451.19 161.85 418.39 161.34C385.59 160.83 382.23 183.04 381.89 205.2C381.66 219.98 387.73 242.95 400.1 274.12Z" id="f2pMgLvyWe"></path><path d="M409.43 179.86L392.36 214.92L409.67 193.7C408.96 196.96 408.2 203.66 407.41 213.78C407.25 215.82 402.95 223.26 394.52 236.11C403.33 226.69 407.63 223.18 407.41 225.58C406.36 237.2 403.58 257.26 404.09 258.59C404.57 259.85 406.72 250.35 410.54 230.09C411.13 226.93 414.44 226.93 420.45 230.09L411.71 220.33L412.81 198.25L430.97 202.85L413.83 192.12L417.92 166.14L412.81 168.49L409.43 179.86Z" id="b57lRmiIi5"></path></defs><g><g><g><use xlink:href="#a30Ybg6KjL" opacity="1" fill="#7fb1f7" fill-opacity="1"></use></g><g><g><use xlink:href="#cnrKJ6ST2" opacity="1" fill-opacity="0" stroke="#000202" stroke-width="7" stroke-opacity="0.31"></use></g></g><g><g><use xlink:href="#aZJim4sEn" opacity="1" fill-opacity="0" stroke="#000102" stroke-width="7" stroke-opacity="0.31"></use></g></g><g><g><use xlink:href="#c6KCD0cZF" opacity="1" fill="#9a5e15" fill-opacity="1"></use></g><g><use xlink:href="#a2aJwcV4Qy" opacity="1" fill="#e89449" fill-opacity="1"></use></g></g><g><g><use xlink:href="#ahwLzrmXz" opacity="1" fill="#82d385" fill-opacity="1"></use></g><g><use xlink:href="#a3Z9N35hf" opacity="1" fill="#d8fad9" fill-opacity="1"></use></g></g><g><use xlink:href="#abdWB6LQc" opacity="1" fill="#0d9412" fill-opacity="1"></use></g><g><use xlink:href="#a244Apk0pW" opacity="1" fill="#6fd072" fill-opacity="1"></use></g><g><use xlink:href="#a1NHHt9HZJ" opacity="1" fill="#cad382" fill-opacity="1"></use></g><g><use xlink:href="#dK6RFlRbH" opacity="1" fill="#d39782" fill-opacity="1"></use></g><g><use xlink:href="#c3rjHfoFUh" opacity="1" fill="#d38682" fill-opacity="1"></use></g><g><use xlink:href="#bWQgir2QJ" opacity="1" fill="#cad382" fill-opacity="1"></use></g><g><use xlink:href="#f2pMgLvyWe" opacity="1" fill="#c74627" fill-opacity="1"></use></g><g><use xlink:href="#b57lRmiIi5" opacity="1" fill="#ebc597" fill-opacity="1"></use></g></g></g></svg>